<svg xmlns="http://www.w3.org/2000/svg" width="34.071" height="34.787" viewBox="0 0 34.071 34.787"><defs><style>.a{fill:#BEB132;}.b{fill:#decac1;}</style></defs><g transform="translate(1024.187 -125.09)"><g transform="translate(-1024.187 125.09)"><path class="a" d="M-997.913,144.956v3.931a1.331,1.331,0,0,1-1.034,1.31c-1.194.262-2.489.48-3.843.67l-.364.044-.364-.116v-4.28a8.152,8.152,0,0,0-4.367-7.191c.073-.175.131-.306.146-.335a.546.546,0,0,1,.189-.175.52.52,0,0,0,.16-.058,5.956,5.956,0,0,0,1.907-1.092l.116-.073h.16A7.427,7.427,0,0,1-997.913,144.956Z" transform="translate(1031.617 -119.393)"/><path class="a" d="M-1008.834,126.851a4.529,4.529,0,0,0-.422-.48.667.667,0,0,0-.1-.1,6.808,6.808,0,0,0-1.325-1.077,5.991,5.991,0,0,0-1.136-.1,7.828,7.828,0,0,0-7.846,7.788,12.074,12.074,0,0,0,3.377,7.847,4.719,4.719,0,0,0,1.354.233.961.961,0,0,0,.2.015,6.028,6.028,0,0,0,4.178-1.893l.539-.568a11.72,11.72,0,0,0,2.78-7.09A7.332,7.332,0,0,0-1008.834,126.851Z" transform="translate(1026.248 -125.09)"/><path d="M-1011.82,142.8c-4.551,0-7.847-5.922-7.847-9.914a7.826,7.826,0,0,1,7.847-7.788,7.9,7.9,0,0,1,5.739,2.488,4.759,4.759,0,0,1,.448.511,7.646,7.646,0,0,1,1.674,4.789,12.157,12.157,0,0,1-2.868,7.327l-.552.579-.009.01A6.368,6.368,0,0,1-1011.82,142.8Zm0-16.974a7.1,7.1,0,0,0-7.119,7.06c0,3.7,2.99,9.186,7.119,9.186a5.658,5.658,0,0,0,3.919-1.785l.534-.562a11.368,11.368,0,0,0,2.68-6.839,6.935,6.935,0,0,0-1.521-4.345,4.162,4.162,0,0,0-.395-.448A7.187,7.187,0,0,0-1011.82,125.822Zm4.178,14.716h0Z" transform="translate(1026.247 -125.088)"/><path d="M-1009.14,154.165l-.652,0a59.515,59.515,0,0,1-12.961-1.3,1.811,1.811,0,0,1-1.434-1.782V146.5a8.951,8.951,0,0,1,8.877-8.882h.163a.365.365,0,0,1,.261.111l.073.073a7.527,7.527,0,0,0,5.024,1.681,7.632,7.632,0,0,0,5.037-1.7l.154-.1a.371.371,0,0,1,.2-.057h.16a9.038,9.038,0,0,1,4.1,1.019,8.877,8.877,0,0,1,4.781,7.863v4.6a1.83,1.83,0,0,1-1.431,1.78A55.221,55.221,0,0,1-1009.14,154.165Zm-6.167-15.814a8.219,8.219,0,0,0-8.152,8.154v4.571a1.069,1.069,0,0,0,.87,1.073,58.822,58.822,0,0,0,12.8,1.285,56.307,56.307,0,0,0,12.83-1.258,1.091,1.091,0,0,0,.869-1.071v-4.6a8.151,8.151,0,0,0-4.391-7.218h0a8.314,8.314,0,0,0-3.766-.936l-.077.017a8.287,8.287,0,0,1-5.465,1.847,8.245,8.245,0,0,1-5.506-1.865Z" transform="translate(1024.187 -119.378)"/><path d="M-1008.139,141.529h-.036a5.18,5.18,0,0,1-3.313-1.277.365.365,0,0,1-.1-.1.3.3,0,0,1-.084-.24.342.342,0,0,1,.135-.234,4.465,4.465,0,0,0,.5-.524.366.366,0,0,1,.511-.061.365.365,0,0,1,.061.511c-.082.1-.173.208-.277.316a4.367,4.367,0,0,0,2.567.887h.029a4.807,4.807,0,0,0,3.364-1.556,9.455,9.455,0,0,0,2.663-6.174,6.005,6.005,0,0,0-6.056-5.94,6.622,6.622,0,0,0-1.462.2.363.363,0,0,1-.435.269.373.373,0,0,1-.278-.443.733.733,0,0,1,.555-.537,7.213,7.213,0,0,1,1.62-.213,6.733,6.733,0,0,1,6.784,6.667,10.246,10.246,0,0,1-2.878,6.691A5.51,5.51,0,0,1-1008.139,141.529Z" transform="translate(1029.892 -124.491)"/><path d="M-1003.083,151.388a.364.364,0,0,1-.36-.317.363.363,0,0,1,.314-.408c1.664-.215,3.031-.447,4.177-.71A.964.964,0,0,0-998.2,149v-3.923a7.082,7.082,0,0,0-6.934-7.011l-.071.019a6.526,6.526,0,0,1-2.153,1.194.373.373,0,0,1-.508.115.357.357,0,0,1-.112-.5.794.794,0,0,1,.376-.3,5.907,5.907,0,0,0,1.965-1.093l.146-.1a.372.372,0,0,1,.2-.061h.157a7.814,7.814,0,0,1,7.659,7.734V149a1.678,1.678,0,0,1-1.325,1.664c-1.157.266-2.548.5-4.236.721A.466.466,0,0,1-1003.083,151.388Z" transform="translate(1031.547 -119.508)"/></g><g transform="translate(-1023.894 139.66)"><line class="b" x2="0.481" y2="0.481" transform="translate(0.363 0.363)"/><path d="M-1023.142,136.306a.362.362,0,0,1-.258-.106l-.48-.48a.367.367,0,0,1,0-.515.366.366,0,0,1,.515,0l.48.48a.364.364,0,0,1,0,.515A.363.363,0,0,1-1023.142,136.306Z" transform="translate(1023.986 -135.098)"/><g transform="translate(1.641 1.61)"><line class="b" x2="0.481" y2="0.481" transform="translate(0.363 0.363)"/><path d="M-1022.015,137.412a.363.363,0,0,1-.258-.106l-.48-.48a.365.365,0,0,1,0-.514.364.364,0,0,1,.515,0l.48.48a.365.365,0,0,1,0,.514A.363.363,0,0,1-1022.015,137.412Z" transform="translate(1022.859 -136.204)"/></g><g transform="translate(1.609 0.085)"><line class="b" x1="0.481" y2="0.481" transform="translate(0.364 0.364)"/><path d="M-1022.516,136.366a.364.364,0,0,1-.258-.108.362.362,0,0,1,0-.514l.48-.48a.362.362,0,0,1,.514,0,.362.362,0,0,1,0,.514l-.48.48A.363.363,0,0,1-1022.516,136.366Z" transform="translate(1022.881 -135.157)"/></g><g transform="translate(0.046 1.61)"><line class="b" x1="0.481" y2="0.481" transform="translate(0.363 0.363)"/><path d="M-1023.591,137.412a.357.357,0,0,1-.256-.106.362.362,0,0,1,0-.514l.48-.48a.362.362,0,0,1,.514,0,.362.362,0,0,1,0,.514l-.48.48A.363.363,0,0,1-1023.591,137.412Z" transform="translate(1023.955 -136.204)"/></g></g><g transform="translate(-993.016 126.104)"><line class="b" x2="0.481" y2="0.481" transform="translate(0.363 0.364)"/><path class="a" d="M-1001.931,126.994a.363.363,0,0,1-.258-.106l-.48-.48a.365.365,0,0,1,0-.514.364.364,0,0,1,.515,0l.48.48a.365.365,0,0,1,0,.514A.362.362,0,0,1-1001.931,126.994Z" transform="translate(1002.775 -125.787)"/><g transform="translate(1.64 1.61)"><line class="b" x2="0.481" y2="0.481" transform="translate(0.364 0.364)"/><path class="a" d="M-1000.8,128.1a.362.362,0,0,1-.258-.106l-.48-.48a.364.364,0,0,1,0-.515.362.362,0,0,1,.514,0l.482.48a.366.366,0,0,1,0,.515A.362.362,0,0,1-1000.8,128.1Z" transform="translate(1001.648 -126.893)"/></g><g transform="translate(1.609 0.086)"><line class="b" x1="0.481" y2="0.481" transform="translate(0.364 0.363)"/><path class="a" d="M-1001.306,127.053a.359.359,0,0,1-.256-.106.364.364,0,0,1,0-.515l.48-.48a.365.365,0,0,1,.514,0,.364.364,0,0,1,0,.515l-.48.48A.363.363,0,0,1-1001.306,127.053Z" transform="translate(1001.67 -125.845)"/></g><g transform="translate(0.044 1.61)"><line class="b" x1="0.481" y2="0.481" transform="translate(0.365 0.364)"/><path class="a" d="M-1002.38,128.1a.363.363,0,0,1-.258-.106.364.364,0,0,1,0-.515l.482-.48a.362.362,0,0,1,.514,0,.364.364,0,0,1,0,.515l-.482.48A.357.357,0,0,1-1002.38,128.1Z" transform="translate(1002.745 -126.893)"/></g></g></g></svg>