<svg xmlns="http://www.w3.org/2000/svg" width="35.285" height="35.25" viewBox="0 0 35.285 35.25"><defs><style>.a{fill:#BEB132;}.b{fill:#decac1;}.c{fill:#010101;}</style></defs><g transform="translate(763.759 -125.287)"><rect class="a" width="12.018" height="3.506" transform="translate(-752.379 129.553)"/><g transform="translate(-763.759 125.287)"><line class="b" x2="0.501" y2="0.501" transform="translate(0.379 0.378)"/><path d="M-762.88,126.545a.378.378,0,0,1-.268-.111l-.5-.5a.38.38,0,0,1,0-.535.379.379,0,0,1,.537,0l.5.5a.377.377,0,0,1,0,.535A.378.378,0,0,1-762.88,126.545Z" transform="translate(763.759 -125.288)"/><g transform="translate(1.709 1.677)"><line class="b" x2="0.501" y2="0.501" transform="translate(0.379 0.379)"/><path d="M-761.753,127.653a.378.378,0,0,1-.268-.111l-.5-.5a.382.382,0,0,1,0-.537.379.379,0,0,1,.537,0l.5.5a.379.379,0,0,1,0,.537A.378.378,0,0,1-761.753,127.653Z" transform="translate(762.632 -126.393)"/></g><g transform="translate(1.676 0.089)"><line class="b" x1="0.501" y2="0.501" transform="translate(0.379 0.378)"/><path d="M-762.274,126.6a.377.377,0,0,1-.268-.111.379.379,0,0,1,0-.537l.5-.5a.382.382,0,0,1,.537,0,.379.379,0,0,1,0,.537l-.5.5A.374.374,0,0,1-762.274,126.6Z" transform="translate(762.653 -125.346)"/></g><g transform="translate(0.047 1.677)"><line class="b" x1="0.501" y2="0.501" transform="translate(0.379 0.379)"/><path d="M-763.349,127.653a.372.372,0,0,1-.267-.111.379.379,0,0,1,0-.537l.5-.5a.377.377,0,0,1,.535,0,.379.379,0,0,1,0,.537l-.5.5A.377.377,0,0,1-763.349,127.653Z" transform="translate(763.728 -126.393)"/></g><g transform="translate(32.318 32.314)"><line class="b" x2="0.501" y2="0.501" transform="translate(0.379 0.38)"/><path class="a" d="M-741.562,147.861a.378.378,0,0,1-.268-.111l-.5-.5a.379.379,0,0,1,0-.537.377.377,0,0,1,.535,0l.5.5a.382.382,0,0,1,0,.537A.377.377,0,0,1-741.562,147.861Z" transform="translate(742.443 -146.602)"/><g transform="translate(1.709 1.678)"><line class="b" x2="0.501" y2="0.501" transform="translate(0.379 0.379)"/><path class="a" d="M-740.435,148.966a.377.377,0,0,1-.268-.111l-.5-.5a.377.377,0,0,1,0-.535.377.377,0,0,1,.535,0l.5.5a.38.38,0,0,1,0,.535A.378.378,0,0,1-740.435,148.966Z" transform="translate(741.316 -147.709)"/></g><g transform="translate(1.676 0.089)"><line class="b" x1="0.501" y2="0.501" transform="translate(0.379 0.379)"/><path class="a" d="M-740.958,147.92a.379.379,0,0,1-.268-.112.38.38,0,0,1,0-.535l.5-.5a.377.377,0,0,1,.535,0,.377.377,0,0,1,0,.535l-.5.5A.379.379,0,0,1-740.958,147.92Z" transform="translate(741.337 -146.661)"/></g><g transform="translate(0.047 1.678)"><line class="b" x1="0.501" y2="0.501" transform="translate(0.379 0.379)"/><path class="a" d="M-742.032,148.966a.377.377,0,0,1-.268-.111.377.377,0,0,1,0-.535l.5-.5a.377.377,0,0,1,.535,0,.377.377,0,0,1,0,.535l-.5.5A.377.377,0,0,1-742.032,148.966Z" transform="translate(742.411 -147.709)"/></g></g><g transform="translate(7.762 13.969)"><path class="a" d="M-757.173,137.7a.414.414,0,0,1-.062,0,.376.376,0,0,1-.262-.179l-1.087-1.8a.379.379,0,0,1,.129-.52.383.383,0,0,1,.521.13l.858,1.425,2.589-2.156a.382.382,0,0,1,.534.049.381.381,0,0,1-.049.535l-2.929,2.438A.383.383,0,0,1-757.173,137.7Z" transform="translate(758.639 -134.501)"/></g><g transform="translate(7.762 20.299)"><path class="a" d="M-757.173,141.872a.278.278,0,0,1-.062-.006.379.379,0,0,1-.262-.177l-1.087-1.8a.379.379,0,0,1,.129-.52.381.381,0,0,1,.521.129l.858,1.425,2.589-2.154a.381.381,0,0,1,.534.049.379.379,0,0,1-.049.534l-2.929,2.438A.376.376,0,0,1-757.173,141.872Z" transform="translate(758.639 -138.677)"/></g><g transform="translate(7.762 26.63)"><path class="a" d="M-757.173,146.046a.41.41,0,0,1-.062,0,.376.376,0,0,1-.262-.179l-1.087-1.8a.379.379,0,0,1,.129-.52.384.384,0,0,1,.521.129l.858,1.427,2.589-2.156a.382.382,0,0,1,.534.049.381.381,0,0,1-.049.535l-2.929,2.438A.383.383,0,0,1-757.173,146.046Z" transform="translate(758.639 -142.852)"/></g><g transform="translate(4.257 0.613)"><g transform="translate(3.506 12.485)"><path class="c" d="M-757.173,137.121a.45.45,0,0,1-.064,0,.38.38,0,0,1-.261-.179l-1.087-1.8a.379.379,0,0,1,.129-.52.383.383,0,0,1,.521.129l.858,1.427,2.589-2.156a.378.378,0,0,1,.534.049.378.378,0,0,1-.05.534l-2.928,2.438A.383.383,0,0,1-757.173,137.121Z" transform="translate(758.639 -133.927)"/><path class="c" d="M-757.173,141.3a.3.3,0,0,1-.064-.006.373.373,0,0,1-.261-.177l-1.087-1.8a.379.379,0,0,1,.129-.52.383.383,0,0,1,.521.129l.858,1.424,2.588-2.156a.381.381,0,0,1,.535.05.38.38,0,0,1-.049.534l-2.929,2.439A.383.383,0,0,1-757.173,141.3Z" transform="translate(758.639 -131.772)"/><path class="c" d="M-757.173,145.475a.3.3,0,0,1-.064-.006.382.382,0,0,1-.261-.177l-1.087-1.8a.378.378,0,0,1,.129-.519.379.379,0,0,1,.521.129l.858,1.425,2.589-2.156a.381.381,0,0,1,.534.049.38.38,0,0,1-.05.535l-2.928,2.436A.384.384,0,0,1-757.173,145.475Z" transform="translate(758.639 -129.616)"/></g><path class="c" d="M-741.9,135.489h-11.228a.379.379,0,0,1-.379-.379.378.378,0,0,1,.379-.379H-741.9a.379.379,0,0,1,.379.379A.38.38,0,0,1-741.9,135.489Z" transform="translate(764.793 -121.027)"/><path class="c" d="M-741.9,139.666h-11.228a.379.379,0,0,1-.379-.379.378.378,0,0,1,.379-.379H-741.9a.379.379,0,0,1,.379.379A.38.38,0,0,1-741.9,139.666Z" transform="translate(764.793 -118.871)"/><path class="c" d="M-741.9,143.841h-11.228a.378.378,0,0,1-.379-.379.379.379,0,0,1,.379-.379H-741.9a.38.38,0,0,1,.379.379A.379.379,0,0,1-741.9,143.841Z" transform="translate(764.793 -116.716)"/><path class="c" d="M-743.768,132.362H-756.3a.379.379,0,0,1-.379-.379V128.1a.378.378,0,0,1,.379-.379h12.529a.379.379,0,0,1,.379.379v3.881A.38.38,0,0,1-743.768,132.362Zm-12.15-.758h11.771v-3.123h-11.771Z" transform="translate(763.157 -124.644)"/><path class="c" d="M-746.747,129.52a.379.379,0,0,1-.379-.379V128.13a1.672,1.672,0,0,0-1.662-1.68h-3.969a1.683,1.683,0,0,0-1.681,1.68v1.011a.379.379,0,0,1-.379.379.379.379,0,0,1-.379-.379V128.13a2.441,2.441,0,0,1,2.439-2.438h3.969a2.431,2.431,0,0,1,2.42,2.438v1.011A.378.378,0,0,1-746.747,129.52Z" transform="translate(763.921 -125.692)"/><path class="c" d="M-735.819,158.353H-759.28a1.664,1.664,0,0,1-1.671-1.653V130.544a1.663,1.663,0,0,1,1.671-1.653h5.187a.379.379,0,0,1,.379.379.379.379,0,0,1-.379.379h-5.187a.9.9,0,0,0-.913.895V156.7a.9.9,0,0,0,.913.895h23.462a.894.894,0,0,0,.913-.895V130.544a.894.894,0,0,0-.913-.895h-5.749a.379.379,0,0,1-.379-.379.379.379,0,0,1,.379-.379h5.749a1.663,1.663,0,0,1,1.671,1.653V156.7A1.664,1.664,0,0,1-735.819,158.353Z" transform="translate(760.951 -124.041)"/></g></g></g></svg>