<svg xmlns="http://www.w3.org/2000/svg" width="39.744" height="37.419" viewBox="0 0 39.744 37.419"><defs><style>.a{fill:#BEB132;}.b{fill:#decac1;}</style></defs><g transform="translate(825.141 -243.331)"><g transform="translate(-825.141 249.364)"><circle class="a" cx="7.065" cy="7.065" r="7.065" transform="translate(12.816 6.007)"/><g transform="translate(0 10.56)"><path d="M-821.933,259.619a.414.414,0,0,1-.279-.107L-825,257a.411.411,0,0,1-.139-.309v-3a.42.42,0,0,1,.247-.382.419.419,0,0,1,.447.07l2.792,2.49a.419.419,0,0,1,.033.589.419.419,0,0,1-.589.033l-2.1-1.869v1.884l2.652,2.387a.415.415,0,0,1,.032.587A.416.416,0,0,1-821.933,259.619Z" transform="translate(825.141 -253.273)"/><path d="M-823.052,259.619a.416.416,0,0,1-.311-.139.415.415,0,0,1,.032-.587l2.652-2.387v-1.884l-2.095,1.869a.419.419,0,0,1-.589-.033.417.417,0,0,1,.033-.589l2.791-2.49a.422.422,0,0,1,.449-.07.421.421,0,0,1,.245.382v3a.411.411,0,0,1-.139.309l-2.791,2.51A.411.411,0,0,1-823.052,259.619Z" transform="translate(826.26 -253.273)"/></g><path d="M-822.609,256.493a.419.419,0,0,1-.12-.018.423.423,0,0,1-.262-.23l-1.349-3.041a.415.415,0,0,1-.015-.3l.831-2.589a.412.412,0,0,1,.371-.287.4.4,0,0,1,.4.237l1.222,2.585,2.39-1.432a.421.421,0,0,1,.481.037.419.419,0,0,1,.125.464l-.941,2.557a.422.422,0,0,1-.169.209l-2.744,1.741A.43.43,0,0,1-822.609,256.493Zm-.9-3.483,1.088,2.454,2.216-1.405.482-1.312-1.769,1.06a.444.444,0,0,1-.335.042.424.424,0,0,1-.257-.222l-.966-2.046Z" transform="translate(825.653 -244.884)"/><path d="M-819.031,253.053h-3.418a.418.418,0,0,1-.417-.417v-3.263a.414.414,0,0,1,.107-.277l1.793-2.011a.421.421,0,0,1,.451-.117.412.412,0,0,1,.277.374l.135,2.766,2.8-.164a.46.46,0,0,1,.394.222.424.424,0,0,1-.038.451l-1.749,2.273A.414.414,0,0,1-819.031,253.053Zm-3-.835h2.8l1.067-1.387-2.307.134a.423.423,0,0,1-.3-.108.408.408,0,0,1-.138-.289l-.105-2.168-1.01,1.132Z" transform="translate(826.662 -246.945)"/><g transform="translate(33.326 10.56)"><path d="M-803.084,259.619a.416.416,0,0,1-.31-.139.415.415,0,0,1,.032-.587l2.652-2.387v-1.884l-2.1,1.869a.419.419,0,0,1-.589-.033.419.419,0,0,1,.033-.589l2.792-2.49a.419.419,0,0,1,.447-.07.42.42,0,0,1,.247.382v3a.412.412,0,0,1-.138.309l-2.791,2.51A.414.414,0,0,1-803.084,259.619Z" transform="translate(806.293 -253.273)"/><path d="M-801.964,259.619a.415.415,0,0,1-.279-.107l-2.792-2.51a.411.411,0,0,1-.139-.309v-3a.42.42,0,0,1,.247-.382.422.422,0,0,1,.449.07l2.791,2.49a.417.417,0,0,1,.033.589.419.419,0,0,1-.589.033l-2.1-1.871v1.886l2.654,2.387a.415.415,0,0,1,.032.587A.416.416,0,0,1-801.964,259.619Z" transform="translate(805.174 -253.273)"/></g><path d="M-801.492,256.493a.43.43,0,0,1-.224-.065l-2.744-1.741a.422.422,0,0,1-.169-.209l-.94-2.557a.416.416,0,0,1,.123-.464.423.423,0,0,1,.482-.037l2.388,1.432,1.222-2.585a.4.4,0,0,1,.4-.237.412.412,0,0,1,.37.287l.831,2.589a.415.415,0,0,1-.015.3l-1.349,3.041a.423.423,0,0,1-.262.23A.409.409,0,0,1-801.492,256.493Zm-2.4-2.435,2.216,1.405,1.088-2.454-.459-1.43-.966,2.046a.424.424,0,0,1-.257.222.442.442,0,0,1-.336-.042l-1.769-1.06Z" transform="translate(838.219 -244.884)"/><path d="M-801.6,253.053h-3.418a.414.414,0,0,1-.33-.164l-1.749-2.273a.42.42,0,0,1-.037-.451.428.428,0,0,1,.392-.222l2.8.164.135-2.766a.414.414,0,0,1,.277-.374.419.419,0,0,1,.451.117l1.792,2.011a.414.414,0,0,1,.107.277v3.263A.418.418,0,0,1-801.6,253.053Zm-3.213-.835h2.8v-2.687l-1.01-1.132-.105,2.168a.408.408,0,0,1-.138.289.4.4,0,0,1-.3.108l-2.307-.134Z" transform="translate(837.157 -246.945)"/><g transform="translate(0.946 0.705)"><g transform="translate(6.44)"><path d="M-798.162,266.926a.411.411,0,0,1-.232-.07.415.415,0,0,1-.115-.578,11.553,11.553,0,0,0,1.933-6.423A11.666,11.666,0,0,0-808.228,248.2a11.666,11.666,0,0,0-11.653,11.653,11.589,11.589,0,0,0,1.931,6.424l-.7.461a12.428,12.428,0,0,1-2.07-6.885,12.5,12.5,0,0,1,12.488-12.488,12.5,12.5,0,0,1,12.486,12.488,12.4,12.4,0,0,1-2.073,6.885A.418.418,0,0,1-798.162,266.926Z" transform="translate(820.716 -247.368)"/><g transform="translate(3.294 2.948)"><path d="M-815.579,261.274a.413.413,0,0,1-.276-.105,9.513,9.513,0,0,1-2.872-4.538.415.415,0,0,1,.287-.514.416.416,0,0,1,.516.287,8.706,8.706,0,0,0,2.62,4.139.416.416,0,0,1,.037.589A.415.415,0,0,1-815.579,261.274Z" transform="translate(818.743 -244.473)"/><path d="M-809.458,261.276a.409.409,0,0,1-.312-.142.417.417,0,0,1,.037-.588,8.687,8.687,0,0,0,2.624-4.141.411.411,0,0,1,.516-.287.415.415,0,0,1,.287.514,9.515,9.515,0,0,1-2.876,4.54A.41.41,0,0,1-809.458,261.276Z" transform="translate(824.676 -244.473)"/><path d="M-800.87,256.378a.415.415,0,0,1-.4-.294,8.665,8.665,0,0,0-8.313-6.115,8.676,8.676,0,0,0-8.3,6.059.42.42,0,0,1-.526.27.418.418,0,0,1-.27-.524,9.51,9.51,0,0,1,9.091-6.639,9.5,9.5,0,0,1,9.111,6.7.416.416,0,0,1-.275.521A.407.407,0,0,1-800.87,256.378Z" transform="translate(818.775 -249.134)"/></g></g><g transform="translate(0 16.569)"><path d="M-820.6,266.563a.417.417,0,0,1-.417-.417v-2.051h-3.134a.42.42,0,0,1-.342-.177.42.42,0,0,1-.052-.382l.985-2.731-.988-2.961a.419.419,0,0,1,.058-.376.418.418,0,0,1,.339-.174h5.86a.42.42,0,0,1,.394.279.421.421,0,0,1-.132.466l-2.308,1.854a.414.414,0,0,1-.588-.063.42.42,0,0,1,.063-.587l1.385-1.113h-4.1l.851,2.549a.426.426,0,0,1,0,.274l-.833,2.308h2.959a.419.419,0,0,1,.417.417v2.469A.417.417,0,0,1-820.6,266.563Z" transform="translate(824.574 -257.295)"/><path d="M-807.072,263.756h-.005c-7.7-.085-14.908-.569-14.98-.574a.414.414,0,0,1-.387-.444.406.406,0,0,1,.444-.387c.072.005,7.257.486,14.933.571a.418.418,0,0,1,.412.422A.418.418,0,0,1-807.072,263.756Z" transform="translate(825.999 -253.915)"/><path d="M-822.029,263.921a.417.417,0,0,1-.417-.417v-4.677a.421.421,0,0,1,.134-.307.371.371,0,0,1,.315-.11c.072.005,7.257.536,14.931.661a.418.418,0,0,1,.411.424.417.417,0,0,1-.417.411h-.007c-6.6-.107-12.84-.514-14.532-.631V263.5A.417.417,0,0,1-822.029,263.921Z" transform="translate(825.999 -256.552)"/><g transform="translate(18.509)"><path d="M-803.181,266.563a.417.417,0,0,1-.417-.417v-2.469a.419.419,0,0,1,.417-.417h2.959l-.833-2.308a.427.427,0,0,1,0-.274l.851-2.549h-4.1l1.385,1.113a.42.42,0,0,1,.063.587.414.414,0,0,1-.588.063l-2.308-1.854a.421.421,0,0,1-.132-.466.42.42,0,0,1,.394-.279h5.86a.418.418,0,0,1,.339.174.419.419,0,0,1,.058.376l-.988,2.961.985,2.731a.421.421,0,0,1-.052.382.42.42,0,0,1-.342.177h-3.134v2.051A.417.417,0,0,1-803.181,266.563Z" transform="translate(818.555 -257.295)"/><path d="M-813.068,263.755a.418.418,0,0,1-.417-.412.417.417,0,0,1,.412-.422c7.676-.085,14.861-.566,14.933-.571a.406.406,0,0,1,.444.387.414.414,0,0,1-.387.444c-.072.005-7.281.489-14.98.574Z" transform="translate(813.485 -253.915)"/><path d="M-798.111,263.921a.417.417,0,0,1-.417-.417v-4.229c-1.692.117-7.931.524-14.532.631h-.007a.417.417,0,0,1-.417-.411.418.418,0,0,1,.411-.424c7.676-.125,14.86-.656,14.931-.661a.378.378,0,0,1,.316.11.421.421,0,0,1,.134.307V263.5A.417.417,0,0,1-798.111,263.921Z" transform="translate(813.485 -256.552)"/></g></g></g></g><g transform="translate(-789.063 277.518)"><line class="b" x2="0.551" y2="0.551" transform="translate(0.418 0.418)"/><path class="a" d="M-802.557,265.2a.423.423,0,0,1-.3-.122l-.551-.551a.417.417,0,0,1,0-.591.415.415,0,0,1,.589,0l.552.551a.42.42,0,0,1,0,.591A.423.423,0,0,1-802.557,265.2Z" transform="translate(803.526 -263.814)"/><g transform="translate(1.881 1.847)"><line class="b" x2="0.551" y2="0.551" transform="translate(0.417 0.418)"/><path class="a" d="M-801.43,266.305a.416.416,0,0,1-.3-.122l-.551-.551a.417.417,0,0,1,0-.591.418.418,0,0,1,.589,0l.552.552a.418.418,0,0,1,0,.589A.416.416,0,0,1-801.43,266.305Z" transform="translate(802.398 -264.92)"/></g><g transform="translate(1.846 0.098)"><line class="b" x1="0.551" y2="0.551" transform="translate(0.417 0.417)"/><path class="a" d="M-802,265.257a.412.412,0,0,1-.294-.122.415.415,0,0,1,0-.589l.551-.551a.415.415,0,0,1,.589,0,.415.415,0,0,1,0,.589l-.551.551A.416.416,0,0,1-802,265.257Z" transform="translate(802.419 -263.872)"/></g><g transform="translate(0.052 1.847)"><line class="b" x1="0.551" y2="0.551" transform="translate(0.418 0.418)"/><path class="a" d="M-803.076,266.305a.416.416,0,0,1-.3-.122.415.415,0,0,1,0-.589l.552-.552a.418.418,0,0,1,.589,0,.417.417,0,0,1,0,.591l-.552.551A.409.409,0,0,1-803.076,266.305Z" transform="translate(803.495 -264.92)"/></g></g><g transform="translate(-817.513 243.331)"><line class="b" x2="0.551" y2="0.551" transform="translate(0.417 0.418)"/><path d="M-819.6,244.717a.416.416,0,0,1-.3-.122l-.551-.552a.417.417,0,0,1,0-.589.415.415,0,0,1,.589,0l.551.552a.414.414,0,0,1,0,.589A.409.409,0,0,1-819.6,244.717Z" transform="translate(820.571 -243.331)"/><g transform="translate(1.881 1.846)"><line class="b" x2="0.551" y2="0.551" transform="translate(0.416 0.418)"/><path d="M-818.476,245.824a.423.423,0,0,1-.3-.122l-.551-.552a.418.418,0,0,1,0-.591.415.415,0,0,1,.589,0l.551.552a.415.415,0,0,1,0,.591A.416.416,0,0,1-818.476,245.824Z" transform="translate(819.444 -244.436)"/></g><g transform="translate(1.844 0.098)"><line class="b" x1="0.551" y2="0.551" transform="translate(0.417 0.417)"/><path d="M-819.047,244.776a.416.416,0,0,1-.3-.122.419.419,0,0,1,0-.591l.551-.552a.42.42,0,0,1,.591,0,.419.419,0,0,1,0,.591l-.551.552A.415.415,0,0,1-819.047,244.776Z" transform="translate(819.466 -243.389)"/></g><g transform="translate(0.052 1.846)"><line class="b" x1="0.551" y2="0.551" transform="translate(0.417 0.418)"/><path d="M-820.123,245.824a.416.416,0,0,1-.294-.122.418.418,0,0,1,0-.591l.551-.552a.417.417,0,0,1,.591,0,.419.419,0,0,1,0,.591l-.551.552A.427.427,0,0,1-820.123,245.824Z" transform="translate(820.54 -244.436)"/></g></g></g></svg>