<svg xmlns="http://www.w3.org/2000/svg" width="43" height="37.561" viewBox="0 0 43 37.561"><defs><style>.a{fill:#BEB132;}.b{fill:#decac1;}</style></defs><g transform="translate(794.126 -244.106)"><circle class="a" cx="7.619" cy="7.619" r="7.619" transform="translate(-780.234 259.146)"/><g transform="translate(-794.126 244.106)"><g transform="translate(0 8.227)"><g transform="translate(0 11.426)"><path d="M-790.656,261.889a.45.45,0,0,1-.3-.115l-3.02-2.716a.445.445,0,0,1-.149-.335v-3.247a.453.453,0,0,1,.266-.412.448.448,0,0,1,.482.076l3.022,2.7a.451.451,0,0,1,.036.635.447.447,0,0,1-.635.036l-2.271-2.027v2.043l2.871,2.583a.448.448,0,0,1,.034.634A.449.449,0,0,1-790.656,261.889Z" transform="translate(794.126 -255.025)"/><path d="M-792,261.889a.449.449,0,0,1-.335-.149.448.448,0,0,1,.034-.634l2.871-2.583v-2.043l-2.27,2.027a.45.45,0,0,1-.635-.036.45.45,0,0,1,.036-.635l3.02-2.7a.448.448,0,0,1,.482-.076.453.453,0,0,1,.266.412v3.247a.444.444,0,0,1-.149.335l-3.02,2.716A.446.446,0,0,1-792,261.889Z" transform="translate(795.468 -255.025)"/></g><path d="M-791.447,258.763a.451.451,0,0,1-.13-.02.456.456,0,0,1-.283-.248l-1.46-3.292a.457.457,0,0,1-.016-.32l.9-2.8a.446.446,0,0,1,.4-.311.439.439,0,0,1,.438.256l1.321,2.8,2.588-1.551a.453.453,0,0,1,.518.04.451.451,0,0,1,.135.5l-1.017,2.766a.464.464,0,0,1-.182.225l-2.97,1.884A.464.464,0,0,1-791.447,258.763Zm-.979-3.769,1.179,2.658,2.4-1.523.526-1.425-1.919,1.15a.471.471,0,0,1-.362.045.457.457,0,0,1-.277-.239l-1.047-2.217Z" transform="translate(794.741 -246.203)"/><path d="M-787.7,255.282h-3.7a.45.45,0,0,1-.45-.45V251.3a.447.447,0,0,1,.115-.3l1.94-2.176a.454.454,0,0,1,.486-.124.447.447,0,0,1,.3.4l.146,2.993,3.027-.175a.462.462,0,0,1,.425.239.446.446,0,0,1-.041.484l-1.89,2.46A.452.452,0,0,1-787.7,255.282Zm-3.249-.9h3.027l1.155-1.5-2.5.146a.492.492,0,0,1-.328-.115.444.444,0,0,1-.149-.313l-.113-2.351-1.1,1.229Z" transform="translate(795.951 -248.677)"/><g transform="translate(36.06 11.426)"><path d="M-771.963,261.889a.451.451,0,0,1-.335-.149.448.448,0,0,1,.034-.634l2.871-2.583v-2.043l-2.27,2.027a.451.451,0,0,1-.635-.034.452.452,0,0,1,.036-.637l3.02-2.7a.448.448,0,0,1,.482-.076.453.453,0,0,1,.266.412v3.247a.445.445,0,0,1-.149.335l-3.02,2.716A.444.444,0,0,1-771.963,261.889Z" transform="translate(775.433 -255.025)"/><path d="M-770.621,261.889a.45.45,0,0,1-.3-.115l-3.02-2.716a.445.445,0,0,1-.149-.335v-3.247a.453.453,0,0,1,.266-.412.452.452,0,0,1,.484.076l3.02,2.7a.45.45,0,0,1,.036.635.447.447,0,0,1-.635.036l-2.271-2.027v2.043l2.871,2.583a.446.446,0,0,1,.034.634A.446.446,0,0,1-770.621,261.889Z" transform="translate(774.091 -255.025)"/></g><path d="M-770.075,258.763a.464.464,0,0,1-.241-.07l-2.97-1.884a.451.451,0,0,1-.18-.225l-1.019-2.766a.448.448,0,0,1,.135-.5.453.453,0,0,1,.518-.04l2.588,1.551,1.321-2.8a.442.442,0,0,1,.436-.256.446.446,0,0,1,.4.311l.9,2.8a.447.447,0,0,1-.016.32l-1.458,3.292a.456.456,0,0,1-.283.248A.451.451,0,0,1-770.075,258.763Zm-2.6-2.633,2.4,1.523,1.177-2.658-.5-1.55-1.047,2.216a.457.457,0,0,1-.277.239.469.469,0,0,1-.362-.045l-1.919-1.15Z" transform="translate(809.814 -246.203)"/><path d="M-770.066,255.282h-3.7a.452.452,0,0,1-.358-.176l-1.89-2.46a.446.446,0,0,1-.041-.484.44.44,0,0,1,.425-.239l3.027.175.144-2.993a.449.449,0,0,1,.3-.4.45.45,0,0,1,.486.124L-769.73,251a.444.444,0,0,1,.113.3v3.531A.449.449,0,0,1-770.066,255.282Zm-3.476-.9h3.026v-2.909l-1.094-1.229-.115,2.351a.435.435,0,0,1-.148.313.457.457,0,0,1-.327.115l-2.5-.146Z" transform="translate(808.54 -248.677)"/><g transform="translate(1.023 0.763)"><g transform="translate(6.968)"><path d="M-787.071,270.262a.449.449,0,0,1-.4-.236,13.448,13.448,0,0,1-2.219-7.415,13.526,13.526,0,0,1,13.51-13.51,13.525,13.525,0,0,1,13.51,13.51,13.4,13.4,0,0,1-2.243,7.448.45.45,0,0,1-.625.126.451.451,0,0,1-.124-.625,12.507,12.507,0,0,0,2.091-6.949A12.623,12.623,0,0,0-776.176,250a12.623,12.623,0,0,0-12.61,12.61,12.553,12.553,0,0,0,2.089,6.951.452.452,0,0,1,.076.248A.453.453,0,0,1-787.071,270.262Z" transform="translate(789.686 -249.101)"/><g transform="translate(3.565 3.189)"><path d="M-784.283,263.456a.443.443,0,0,1-.3-.112,10.282,10.282,0,0,1-3.107-4.908.447.447,0,0,1,.308-.556.447.447,0,0,1,.556.31,9.412,9.412,0,0,0,2.837,4.48.45.45,0,0,1,.04.634A.441.441,0,0,1-784.283,263.456Z" transform="translate(787.705 -245.283)"/><path d="M-778.357,263.46a.444.444,0,0,1-.338-.153.45.45,0,0,1,.041-.635,9.384,9.384,0,0,0,2.837-4.48.441.441,0,0,1,.556-.31.45.45,0,0,1,.31.556,10.27,10.27,0,0,1-3.108,4.908A.451.451,0,0,1-778.357,263.46Z" transform="translate(794.822 -245.283)"/><path d="M-768.374,258.708a.45.45,0,0,1-.43-.317,9.377,9.377,0,0,0-9-6.618,9.388,9.388,0,0,0-8.978,6.555.451.451,0,0,1-.565.292.451.451,0,0,1-.292-.565,10.285,10.285,0,0,1,9.834-7.181,10.273,10.273,0,0,1,9.856,7.252.449.449,0,0,1-.3.562A.438.438,0,0,1-768.374,258.708Z" transform="translate(787.744 -250.873)"/></g></g><g transform="translate(0 17.926)"><path d="M-789.264,269.086a.45.45,0,0,1-.45-.45v-2.217h-3.393a.45.45,0,0,1-.369-.193.451.451,0,0,1-.056-.41l1.066-2.957-1.069-3.205a.456.456,0,0,1,.063-.407.454.454,0,0,1,.365-.185h6.343a.452.452,0,0,1,.425.3.452.452,0,0,1-.144.5l-2.5,2.009a.448.448,0,0,1-.632-.07.448.448,0,0,1,.068-.632l1.5-1.208h-4.442l.922,2.761a.449.449,0,0,1,0,.3l-.9,2.5h3.2a.449.449,0,0,1,.45.45v2.667A.449.449,0,0,1-789.264,269.086Z" transform="translate(793.558 -259.061)"/><path d="M-774.788,265.651h-.005c-8.331-.092-16.13-.616-16.209-.621a.449.449,0,0,1-.417-.477.442.442,0,0,1,.481-.419c.077.005,7.851.526,16.157.617a.451.451,0,0,1,.445.455A.451.451,0,0,1-774.788,265.651Z" transform="translate(795.266 -255.007)"/><path d="M-790.972,266.141a.451.451,0,0,1-.45-.45v-5.063a.451.451,0,0,1,.146-.331.4.4,0,0,1,.338-.117c.078.005,7.853.58,16.157.715a.451.451,0,0,1,.443.457.451.451,0,0,1-.45.443h-.007c-7.144-.115-13.9-.556-15.727-.682v4.579A.45.45,0,0,1-790.972,266.141Z" transform="translate(795.266 -258.17)"/><g transform="translate(20.028)"><path d="M-771.879,269.086a.45.45,0,0,1-.45-.45v-2.667a.45.45,0,0,1,.45-.45h3.2l-.9-2.5a.459.459,0,0,1,0-.3l.922-2.761h-4.44l1.5,1.208a.451.451,0,0,1,.068.632.45.45,0,0,1-.634.07l-2.5-2.009a.451.451,0,0,1-.142-.5.45.45,0,0,1,.425-.3h6.343a.453.453,0,0,1,.364.185.451.451,0,0,1,.063.407l-1.069,3.205,1.065,2.957a.45.45,0,0,1-.056.41.449.449,0,0,1-.367.193h-3.395v2.217A.45.45,0,0,1-771.879,269.086Z" transform="translate(788.511 -259.061)"/><path d="M-781.98,265.651a.449.449,0,0,1-.45-.445.449.449,0,0,1,.445-.455c8.306-.092,16.08-.612,16.157-.617a.439.439,0,0,1,.479.419.446.446,0,0,1-.418.477c-.077.005-7.878.529-16.208.621Z" transform="translate(782.43 -255.006)"/><path d="M-765.8,266.141a.451.451,0,0,1-.45-.45v-4.579c-1.83.126-8.583.567-15.725.682h-.007a.449.449,0,0,1-.45-.443.45.45,0,0,1,.443-.457c8.3-.135,16.078-.709,16.155-.715a.4.4,0,0,1,.34.117.456.456,0,0,1,.144.331v5.063A.451.451,0,0,1-765.8,266.141Z" transform="translate(782.43 -258.17)"/></g></g></g></g><g transform="translate(12.856)"><path d="M-773.787,252.756a.437.437,0,0,1-.241-.07,15.175,15.175,0,0,0-7.952-2.248.45.45,0,0,1-.45-.45.451.451,0,0,1,.45-.45,16.267,16.267,0,0,1,7.743,1.978v-5.608a5.243,5.243,0,0,1-3.493,1.2c-1.775,0-4.421-2.109-4.532-2.2a.451.451,0,0,1-.068-.634.449.449,0,0,1,.632-.07c.693.558,2.757,2,3.969,2,1.26,0,2.941-.481,3.531-1.832a.459.459,0,0,1,.506-.259.451.451,0,0,1,.356.441v7.748a.449.449,0,0,1-.232.394A.427.427,0,0,1-773.787,252.756Z" transform="translate(790.625 -244.106)"/><path d="M-786.533,252.756a.416.416,0,0,1-.216-.056.451.451,0,0,1-.234-.394v-7.748a.451.451,0,0,1,.358-.441.462.462,0,0,1,.5.259c.592,1.352,2.273,1.832,3.531,1.832,1.213,0,3.276-1.445,3.969-2a.452.452,0,0,1,.634.07.452.452,0,0,1-.07.634c-.112.09-2.756,2.2-4.532,2.2a5.25,5.25,0,0,1-3.493-1.2v5.608a16.269,16.269,0,0,1,7.745-1.978.451.451,0,0,1,.45.45.45.45,0,0,1-.45.45,15.177,15.177,0,0,0-7.953,2.248A.433.433,0,0,1-786.533,252.756Z" transform="translate(786.983 -244.106)"/></g></g><g transform="translate(-789.496 244.632)"><line class="b" x2="0.594" y2="0.594" transform="translate(0.45 0.451)"/><path class="a" d="M-790.509,245.9a.46.46,0,0,1-.32-.131l-.594-.6a.449.449,0,0,1,0-.635.45.45,0,0,1,.637,0l.594.6a.451.451,0,0,1,0,.637A.449.449,0,0,1-790.509,245.9Z" transform="translate(791.554 -244.399)"/><g transform="translate(2.028 1.992)"><line class="b" x2="0.594" y2="0.594" transform="translate(0.45 0.451)"/><path class="a" d="M-789.382,247a.452.452,0,0,1-.32-.131l-.594-.6a.451.451,0,0,1,0-.637.453.453,0,0,1,.637,0l.594.6a.451.451,0,0,1,0,.637A.442.442,0,0,1-789.382,247Z" transform="translate(790.427 -245.505)"/></g><g transform="translate(1.991 0.106)"><line class="b" x1="0.594" y2="0.594" transform="translate(0.449 0.45)"/><path class="a" d="M-790,245.952a.441.441,0,0,1-.317-.131.449.449,0,0,1,0-.635l.594-.6a.447.447,0,0,1,.635,0,.446.446,0,0,1,0,.635l-.594.6A.445.445,0,0,1-790,245.952Z" transform="translate(790.448 -244.458)"/></g><g transform="translate(0.056 1.992)"><line class="b" x1="0.594" y2="0.594" transform="translate(0.45 0.451)"/><path class="a" d="M-791.072,247a.441.441,0,0,1-.317-.131.448.448,0,0,1,0-.637l.594-.6a.451.451,0,0,1,.635,0,.451.451,0,0,1,0,.637l-.594.6A.448.448,0,0,1-791.072,247Z" transform="translate(791.522 -245.505)"/></g><g transform="translate(30.218)"><line class="b" x2="0.594" y2="0.594" transform="translate(0.45 0.451)"/><path d="M-773.72,245.9a.453.453,0,0,1-.318-.131l-.6-.6a.449.449,0,0,1,0-.635.45.45,0,0,1,.637,0l.594.6a.451.451,0,0,1,0,.637A.449.449,0,0,1-773.72,245.9Z" transform="translate(774.765 -244.399)"/><g transform="translate(2.028 1.992)"><line class="b" x2="0.594" y2="0.594" transform="translate(0.45 0.451)"/><path d="M-772.593,247a.445.445,0,0,1-.318-.131l-.6-.6a.451.451,0,0,1,0-.637.453.453,0,0,1,.637,0l.594.6a.451.451,0,0,1,0,.637A.441.441,0,0,1-772.593,247Z" transform="translate(773.638 -245.505)"/></g><g transform="translate(1.991 0.106)"><line class="b" x1="0.594" y2="0.594" transform="translate(0.45 0.45)"/><path d="M-773.209,245.952a.441.441,0,0,1-.317-.131.449.449,0,0,1,0-.635l.594-.6a.45.45,0,0,1,.637,0,.449.449,0,0,1,0,.635l-.6.6A.445.445,0,0,1-773.209,245.952Z" transform="translate(773.659 -244.458)"/></g><g transform="translate(0.058 1.992)"><line class="b" x1="0.594" y2="0.594" transform="translate(0.449 0.451)"/><path d="M-774.283,247a.441.441,0,0,1-.317-.131.451.451,0,0,1,0-.637l.594-.6a.451.451,0,0,1,.635,0,.451.451,0,0,1,0,.637l-.594.6A.447.447,0,0,1-774.283,247Z" transform="translate(774.733 -245.505)"/></g></g></g></g></svg>