<svg xmlns="http://www.w3.org/2000/svg" width="23.785" height="33.747" viewBox="0 0 23.785 33.747"><defs><style>.a{fill:#BEB132;}.b{fill:#decac1;}</style></defs><g transform="translate(645.331 -165.923)"><g transform="translate(-643.566 165.923)"><path class="a" d="M-634.272,178.9l-5.688,14.958h5.688Z" transform="translate(645.823 -160.468)"/><path d="M-632.537,199.67h-5.688a.355.355,0,0,1-.355-.355v-14.6h-5.153a.356.356,0,0,1-.355-.355v-5.69a.355.355,0,0,1,.355-.355h5.153v-3.575a8.816,8.816,0,0,1,8.8-8.814h3.764a.355.355,0,0,1,.355.355v5.69a.355.355,0,0,1-.355.355h-3.764a2.345,2.345,0,0,0-2.4,2.4v3.592h6.252a.358.358,0,0,1,.271.125.358.358,0,0,1,.079.288l-.937,5.69a.356.356,0,0,1-.351.3h-5.315v14.6A.355.355,0,0,1-632.537,199.67Zm-5.333-.71h4.978v-14.6a.355.355,0,0,1,.355-.355h5.369l.821-4.979h-6.19a.356.356,0,0,1-.355-.355V174.72a3.074,3.074,0,0,1,3.108-3.108h3.409v-4.979h-3.409a8.1,8.1,0,0,0-8.086,8.1v3.93a.355.355,0,0,1-.355.355h-5.153V184h5.153a.354.354,0,0,1,.355.355Z" transform="translate(644.088 -165.923)"/></g><g transform="translate(-645.331 168.652)"><line class="b" x2="0.469" y2="0.469" transform="translate(0.356 0.355)"/><path class="a" d="M-644.506,169.023a.348.348,0,0,1-.25-.1l-.47-.469a.355.355,0,0,1,0-.5.357.357,0,0,1,.5,0l.469.469a.355.355,0,0,1,0,.5A.354.354,0,0,1-644.506,169.023Z" transform="translate(645.331 -167.844)"/><g transform="translate(1.601 1.571)"><line class="b" x2="0.469" y2="0.469" transform="translate(0.356 0.355)"/><path class="a" d="M-643.379,170.13a.35.35,0,0,1-.25-.105l-.47-.469a.353.353,0,0,1,0-.5.355.355,0,0,1,.5,0l.469.469a.353.353,0,0,1,0,.5A.355.355,0,0,1-643.379,170.13Z" transform="translate(644.204 -168.951)"/></g><g transform="translate(1.571 0.083)"><line class="b" x1="0.469" y2="0.469" transform="translate(0.355 0.355)"/><path class="a" d="M-643.869,169.082a.355.355,0,0,1-.251-.105.353.353,0,0,1,0-.5l.469-.469a.355.355,0,0,1,.5,0,.356.356,0,0,1,0,.5l-.469.469A.355.355,0,0,1-643.869,169.082Z" transform="translate(644.225 -167.903)"/></g><g transform="translate(0.045 1.571)"><line class="b" x1="0.469" y2="0.469" transform="translate(0.355 0.355)"/><path class="a" d="M-644.944,170.13a.355.355,0,0,1-.251-.105.356.356,0,0,1,0-.5l.47-.469a.353.353,0,0,1,.5,0,.353.353,0,0,1,0,.5l-.469.469A.355.355,0,0,1-644.944,170.13Z" transform="translate(645.299 -168.951)"/></g></g><g transform="translate(-624.325 191.818)"><line class="b" x2="0.469" y2="0.469" transform="translate(0.355 0.355)"/><path d="M-629.717,185.335a.35.35,0,0,1-.25-.105l-.469-.469a.353.353,0,0,1,0-.5.353.353,0,0,1,.5,0l.469.469a.353.353,0,0,1,0,.5A.355.355,0,0,1-629.717,185.335Z" transform="translate(630.541 -184.156)"/><g transform="translate(1.599 1.572)"><line class="b" x2="0.469" y2="0.469" transform="translate(0.356 0.354)"/><path d="M-628.59,186.441a.348.348,0,0,1-.25-.1l-.47-.469a.355.355,0,0,1,0-.5.358.358,0,0,1,.5,0l.469.469a.355.355,0,0,1,0,.5A.354.354,0,0,1-628.59,186.441Z" transform="translate(629.415 -185.262)"/></g><g transform="translate(1.569 0.083)"><line class="b" x1="0.469" y2="0.469" transform="translate(0.355 0.354)"/><path d="M-629.08,185.393a.353.353,0,0,1-.251-.1.355.355,0,0,1,0-.5l.469-.469a.358.358,0,0,1,.5,0,.358.358,0,0,1,0,.5l-.469.469A.353.353,0,0,1-629.08,185.393Z" transform="translate(629.436 -184.214)"/></g><g transform="translate(0.044 1.572)"><line class="b" x1="0.469" y2="0.469" transform="translate(0.355 0.354)"/><path d="M-630.155,186.441a.354.354,0,0,1-.251-.1.358.358,0,0,1,0-.5l.47-.469a.356.356,0,0,1,.5,0,.355.355,0,0,1,0,.5l-.469.469A.353.353,0,0,1-630.155,186.441Z" transform="translate(630.51 -185.262)"/></g></g></g></svg>