<svg xmlns="http://www.w3.org/2000/svg" width="43.492" height="37.712" viewBox="0 0 43.492 37.712"><defs><style>.a{fill:#BEB132;}.b{fill:#decac1;}</style></defs><g transform="translate(856.233 -244.185)"><g transform="translate(-856.233 244.185)"><path class="a" d="M-833.161,255.488a7.6,7.6,0,0,1-.564,2.9,7.308,7.308,0,0,1-.455.929c-2.094.073-4.352.128-6.646.182-2.312-.036-4.57-.109-6.664-.182a7.34,7.34,0,0,1-.455-.929,7.6,7.6,0,0,1-.564-2.9,7.681,7.681,0,0,1,7.665-7.684A7.685,7.685,0,0,1-833.161,255.488Z" transform="translate(862.572 -241.215)"/><g transform="translate(3.975 24.555)"><g transform="translate(0 0.134)"><path d="M-851.391,268.461a.459.459,0,0,1-.308-.118.454.454,0,0,1-.106-.526,15.951,15.951,0,0,0,.726-4.517.455.455,0,0,1,.455-.446h.011a.458.458,0,0,1,.444.466,21.926,21.926,0,0,1-.415,3.632,50,50,0,0,0,8.066-7.687.46.46,0,0,1,.641-.056.456.456,0,0,1,.055.643c-.528.628-5.289,6.2-9.342,8.549A.429.429,0,0,1-851.391,268.461Z" transform="translate(855.859 -256.629)"/><path d="M-853.595,264.952A.451.451,0,0,1-854,264.7a.456.456,0,0,1,.2-.612c2.728-1.377,5.6-4.466,7.068-6.187a.455.455,0,0,1,.641-.051.458.458,0,0,1,.051.643c-1.848,2.163-4.623,5.033-7.349,6.409A.459.459,0,0,1-853.595,264.952Z" transform="translate(854.05 -257.744)"/><path d="M-852.222,262.18c-.49,0-.97-.009-1.4-.033a.454.454,0,0,1-.428-.479.466.466,0,0,1,.481-.432c1.79.106,4.7-.073,4.725-.075a.448.448,0,0,1,.483.43.455.455,0,0,1-.426.481C-848.881,262.078-850.6,262.18-852.222,262.18Z" transform="translate(854.05 -254.939)"/><path d="M-850.393,263.535a.455.455,0,0,1-.322-.135.453.453,0,0,1,0-.643l4.292-4.29a.458.458,0,0,1,.645,0,.455.455,0,0,1,0,.645l-4.292,4.288A.455.455,0,0,1-850.393,263.535Z" transform="translate(856.677 -257.26)"/></g><g transform="translate(21.396)"><path d="M-832.622,268.461a.433.433,0,0,1-.228-.062c-4.053-2.349-8.812-7.92-9.342-8.549a.456.456,0,0,1,.055-.643.459.459,0,0,1,.641.056,49.989,49.989,0,0,0,8.066,7.687,21.619,21.619,0,0,1-.413-3.632.456.456,0,0,1,.443-.466h.013a.457.457,0,0,1,.455.446,15.816,15.816,0,0,0,.727,4.517.454.454,0,0,1-.107.526A.453.453,0,0,1-832.622,268.461Z" transform="translate(842.299 -256.495)"/><path d="M-831.274,265.012a.439.439,0,0,1-.206-.049c-2.769-1.4-5.588-4.332-7.465-6.544a.455.455,0,0,1,.053-.641.458.458,0,0,1,.641.051c1.493,1.761,4.41,4.922,7.183,6.324a.453.453,0,0,1,.2.61A.452.452,0,0,1-831.274,265.012Z" transform="translate(844.964 -257.671)"/><path d="M-833.793,262.18c-1.626,0-3.341-.1-3.436-.107a.456.456,0,0,1-.426-.481.456.456,0,0,1,.483-.43c.027,0,2.935.178,4.725.075a.459.459,0,0,1,.481.432.454.454,0,0,1-.428.479C-832.822,262.171-833.3,262.18-833.793,262.18Z" transform="translate(846.11 -254.806)"/><path d="M-835.841,263.535a.448.448,0,0,1-.32-.135l-4.293-4.288a.459.459,0,0,1,0-.645.458.458,0,0,1,.645,0l4.292,4.29a.453.453,0,0,1,0,.643A.455.455,0,0,1-835.841,263.535Z" transform="translate(843.703 -257.126)"/></g></g><g transform="translate(7.407)"><path d="M-840.187,261.776a14.329,14.329,0,0,1-4.213-.628,14.655,14.655,0,0,1-3.217-1.444,15.062,15.062,0,0,1-1.484-1.038.453.453,0,0,1-.188-.368.474.474,0,0,1,.741-.357,13.627,13.627,0,0,0,1.4.985,13.667,13.667,0,0,0,3.012,1.351,13.617,13.617,0,0,0,7.893,0,13.719,13.719,0,0,0,3.013-1.353,13.371,13.371,0,0,0,1.569-1.122.471.471,0,0,1,.147-.082.467.467,0,0,1,.424.064.458.458,0,0,1,.093.639.464.464,0,0,1-.135.118,14.063,14.063,0,0,1-1.628,1.162,14.694,14.694,0,0,1-3.217,1.444A14.351,14.351,0,0,1-840.187,261.776Z" transform="translate(854.526 -233.095)"/><path d="M-824.263,261.987a.492.492,0,0,1-.452-.5v0a14.2,14.2,0,0,0,.317-2.955A13.444,13.444,0,0,0-837.826,245.1a13.444,13.444,0,0,0-13.428,13.432,13.5,13.5,0,0,0,.306,2.859.454.454,0,0,1-.35.541.452.452,0,0,1-.539-.348,14.353,14.353,0,0,1-.328-3.052,14.356,14.356,0,0,1,14.339-14.342,14.355,14.355,0,0,1,14.339,14.342,14.322,14.322,0,0,1-.326,3.053A.412.412,0,0,1-824.263,261.987Z" transform="translate(852.165 -244.185)"/><path d="M-849.583,254.331a.443.443,0,0,1-.135-.022.451.451,0,0,1-.3-.568,10.893,10.893,0,0,1,10.455-7.693,10.912,10.912,0,0,1,10.433,7.618.455.455,0,0,1-.295.572.454.454,0,0,1-.572-.295,10,10,0,0,0-9.566-6.985,9.991,9.991,0,0,0-9.586,7.052A.453.453,0,0,1-849.583,254.331Z" transform="translate(853.911 -242.656)"/></g><g transform="translate(0 14.472)"><path d="M-851.692,262.744a.455.455,0,0,1-.455-.455v-2.382h-3.631a.455.455,0,0,1-.373-.195.455.455,0,0,1-.055-.415l1.135-3.15-1.138-3.416a.451.451,0,0,1,.062-.41.455.455,0,0,1,.37-.189h6.742a.455.455,0,0,1,.43.3.458.458,0,0,1-.144.506l-2.656,2.136a.455.455,0,0,1-.641-.071.456.456,0,0,1,.069-.639l1.65-1.326h-4.818l.989,2.966a.466.466,0,0,1,0,.3l-.969,2.689h3.438a.455.455,0,0,1,.455.455v2.837A.455.455,0,0,1-851.692,262.744Z" transform="translate(856.233 -252.133)"/><path d="M-836.33,259.033h-.006c-8.856-.1-17.148-.654-17.23-.661a.452.452,0,0,1-.422-.482.441.441,0,0,1,.484-.424c.082.005,8.348.561,17.179.657a.454.454,0,0,1,.45.459A.456.456,0,0,1-836.33,259.033Z" transform="translate(858.075 -247.762)"/><path d="M-853.534,259.6a.455.455,0,0,1-.455-.455v-5.38a.462.462,0,0,1,.146-.335.416.416,0,0,1,.344-.118c.082.005,8.35.617,17.177.759a.456.456,0,0,1,.448.462.419.419,0,0,1-.463.448c-7.625-.122-14.834-.594-16.742-.727v4.891A.455.455,0,0,1-853.534,259.6Z" transform="translate(858.075 -251.171)"/><g transform="translate(21.291)"><path d="M-833.439,262.744a.455.455,0,0,1-.455-.455v-2.837a.455.455,0,0,1,.455-.455H-830l-.967-2.689a.442.442,0,0,1,0-.3l.989-2.966H-834.8l1.648,1.327a.454.454,0,0,1,.069.637.452.452,0,0,1-.641.069l-2.655-2.136a.452.452,0,0,1-.144-.5.455.455,0,0,1,.43-.3h6.741a.456.456,0,0,1,.37.189.457.457,0,0,1,.064.41l-1.138,3.416,1.134,3.15a.455.455,0,0,1-.057.415.455.455,0,0,1-.373.195h-3.631v2.382A.455.455,0,0,1-833.439,262.744Z" transform="translate(851.099 -252.133)"/><path d="M-844.085,259.032a.458.458,0,0,1-.455-.452.456.456,0,0,1,.45-.459c8.831-.1,17.1-.652,17.179-.657a.436.436,0,0,1,.486.424.454.454,0,0,1-.424.482c-.082.007-8.374.564-17.23.661Z" transform="translate(844.54 -247.761)"/><path d="M-826.88,259.6a.455.455,0,0,1-.455-.455v-4.891c-1.908.133-9.117.6-16.742.727a.474.474,0,0,1-.462-.448.455.455,0,0,1,.448-.462c8.829-.142,17.1-.754,17.179-.759a.424.424,0,0,1,.342.118.462.462,0,0,1,.146.335v5.38A.455.455,0,0,1-826.88,259.6Z" transform="translate(844.54 -251.171)"/></g></g></g><g transform="translate(-842.299 278.371)"><line class="b" x2="0.601" y2="0.601" transform="translate(0.456 0.455)"/><path class="a" d="M-847.523,264.471a.447.447,0,0,1-.321-.133l-.6-.6a.455.455,0,0,1,0-.645.458.458,0,0,1,.645,0l.6.6a.453.453,0,0,1,0,.643A.453.453,0,0,1-847.523,264.471Z" transform="translate(848.58 -262.96)"/><g transform="translate(2.052 2.014)"><line class="b" x2="0.601" y2="0.601" transform="translate(0.456 0.456)"/><path class="a" d="M-846.4,265.579a.454.454,0,0,1-.32-.133l-.6-.6a.452.452,0,0,1,0-.643.455.455,0,0,1,.645,0l.6.6a.455.455,0,0,1,0,.645A.461.461,0,0,1-846.4,265.579Z" transform="translate(847.454 -264.066)"/></g><g transform="translate(2.014 0.106)"><line class="b" x1="0.601" y2="0.601" transform="translate(0.455 0.456)"/><path class="a" d="M-847.02,264.531a.446.446,0,0,1-.321-.133.455.455,0,0,1,0-.645l.6-.6a.455.455,0,0,1,.645,0,.458.458,0,0,1,0,.645l-.6.6A.453.453,0,0,1-847.02,264.531Z" transform="translate(847.475 -263.018)"/></g><g transform="translate(0.058 2.014)"><line class="b" x1="0.601" y2="0.601" transform="translate(0.455 0.456)"/><path class="a" d="M-848.094,265.579a.461.461,0,0,1-.322-.133.458.458,0,0,1,0-.645l.6-.6a.453.453,0,0,1,.643,0,.453.453,0,0,1,0,.643l-.6.6A.461.461,0,0,1-848.094,265.579Z" transform="translate(848.549 -264.066)"/></g></g><g transform="translate(-820.834 244.342)"><line class="b" x2="0.601" y2="0.601" transform="translate(0.456 0.455)"/><path d="M-835.735,245.784a.454.454,0,0,1-.32-.133l-.6-.6a.455.455,0,0,1,0-.645.455.455,0,0,1,.645,0l.6.6a.455.455,0,0,1,0,.645A.461.461,0,0,1-835.735,245.784Z" transform="translate(836.792 -244.271)"/><g transform="translate(2.052 2.015)"><line class="b" x2="0.601" y2="0.601" transform="translate(0.456 0.455)"/><path d="M-834.607,246.889a.446.446,0,0,1-.321-.133l-.6-.6a.455.455,0,0,1,0-.645.458.458,0,0,1,.645,0l.6.6a.453.453,0,0,1,0,.643A.453.453,0,0,1-834.607,246.889Z" transform="translate(835.664 -245.378)"/></g><g transform="translate(2.014 0.107)"><line class="b" x1="0.601" y2="0.601" transform="translate(0.455 0.455)"/><path d="M-835.231,245.841a.446.446,0,0,1-.32-.133.453.453,0,0,1,0-.643l.6-.6a.455.455,0,0,1,.645,0,.456.456,0,0,1,0,.643l-.6.6A.454.454,0,0,1-835.231,245.841Z" transform="translate(835.685 -244.33)"/></g><g transform="translate(0.058 2.015)"><line class="b" x1="0.601" y2="0.601" transform="translate(0.455 0.455)"/><path d="M-836.305,246.889a.453.453,0,0,1-.322-.133.456.456,0,0,1,0-.643l.6-.6a.456.456,0,0,1,.643,0,.455.455,0,0,1,0,.645l-.6.6A.453.453,0,0,1-836.305,246.889Z" transform="translate(836.76 -245.378)"/></g></g></g></svg>