<svg xmlns="http://www.w3.org/2000/svg" width="35.286" height="35.25" viewBox="0 0 35.286 35.25"><defs><style>.a{fill:#decac1;}.b{fill:#BEB132;}</style></defs><g transform="translate(689.37 -125.287)"><g transform="translate(-689.37 125.287)"><line class="a" x2="0.501" y2="0.501" transform="translate(0.379 0.378)"/><path d="M-688.489,126.545a.377.377,0,0,1-.268-.111l-.5-.5a.377.377,0,0,1,0-.535.377.377,0,0,1,.535,0l.5.5a.38.38,0,0,1,0,.535A.378.378,0,0,1-688.489,126.545Z" transform="translate(689.37 -125.288)"/><g transform="translate(1.708 1.677)"><line class="a" x2="0.501" y2="0.501" transform="translate(0.379 0.379)"/><path d="M-687.362,127.653a.377.377,0,0,1-.268-.111l-.5-.5a.381.381,0,0,1,0-.537.379.379,0,0,1,.537,0l.5.5a.382.382,0,0,1,0,.537A.378.378,0,0,1-687.362,127.653Z" transform="translate(688.243 -126.394)"/></g><g transform="translate(1.676 0.089)"><line class="a" x1="0.501" y2="0.501" transform="translate(0.379 0.378)"/><path d="M-687.885,126.6a.377.377,0,0,1-.268-.111.381.381,0,0,1,0-.537l.5-.5a.38.38,0,0,1,.535,0,.379.379,0,0,1,0,.537l-.5.5A.378.378,0,0,1-687.885,126.6Z" transform="translate(688.264 -125.346)"/></g><g transform="translate(0.047 1.677)"><line class="a" x1="0.501" y2="0.501" transform="translate(0.379 0.379)"/><path d="M-688.96,127.653a.377.377,0,0,1-.267-.111.379.379,0,0,1,0-.537l.5-.5a.379.379,0,0,1,.537,0,.382.382,0,0,1,0,.537l-.5.5A.378.378,0,0,1-688.96,127.653Z" transform="translate(689.338 -126.394)"/></g><g transform="translate(32.319 32.315)"><line class="a" x2="0.501" y2="0.501" transform="translate(0.379 0.38)"/><path class="b" d="M-667.174,147.861a.377.377,0,0,1-.268-.111l-.5-.5a.381.381,0,0,1,0-.537.379.379,0,0,1,.537,0l.5.5a.379.379,0,0,1,0,.537A.377.377,0,0,1-667.174,147.861Z" transform="translate(668.053 -146.602)"/><g transform="translate(1.709 1.678)"><line class="a" x2="0.501" y2="0.501" transform="translate(0.379 0.379)"/><path class="b" d="M-666.047,148.966a.378.378,0,0,1-.268-.111l-.5-.5a.38.38,0,0,1,0-.535.379.379,0,0,1,.537,0l.5.5a.377.377,0,0,1,0,.535A.377.377,0,0,1-666.047,148.966Z" transform="translate(666.926 -147.708)"/></g><g transform="translate(1.676 0.089)"><line class="a" x1="0.501" y2="0.501" transform="translate(0.379 0.379)"/><path class="b" d="M-666.568,147.92a.379.379,0,0,1-.268-.112.377.377,0,0,1,0-.535l.5-.5a.377.377,0,0,1,.535,0,.377.377,0,0,1,0,.535l-.5.5A.373.373,0,0,1-666.568,147.92Z" transform="translate(666.948 -146.66)"/></g><g transform="translate(0.047 1.678)"><line class="a" x1="0.501" y2="0.501" transform="translate(0.379 0.379)"/><path class="b" d="M-667.643,148.966a.371.371,0,0,1-.267-.111.377.377,0,0,1,0-.535l.5-.5a.377.377,0,0,1,.535,0,.377.377,0,0,1,0,.535l-.5.5A.377.377,0,0,1-667.643,148.966Z" transform="translate(668.022 -147.708)"/></g></g><g transform="translate(0.259 0.369)"><g transform="translate(10.748 6.679)"><path class="b" d="M-677.025,129.936v10.331a6.666,6.666,0,0,1-3.521-1.245c-.036-.018-.055-.036-.055-.053a5.246,5.246,0,0,1-1.51-3.663,5.243,5.243,0,0,1,1.51-3.663c0-.018.018-.036.055-.053A7.12,7.12,0,0,1-677.025,129.936Z" transform="translate(682.11 -129.936)"/><path class="b" d="M-671.527,142.452a5.247,5.247,0,0,1-1.512,3.663c0,.017-.018.035-.053.053a6.524,6.524,0,0,1-3.521,1.245v-10.2a6.789,6.789,0,0,1,3.627,1.616A5.3,5.3,0,0,1-671.527,142.452Z" transform="translate(684.948 -126.183)"/></g><path d="M-671.8,160.332a17.421,17.421,0,0,1-17.4-17.4,17.42,17.42,0,0,1,17.4-17.4,17.42,17.42,0,0,1,17.4,17.4,17.284,17.284,0,0,1-1.384,6.81.336.336,0,0,1-.447.18.338.338,0,0,1-.18-.446,16.624,16.624,0,0,0,1.33-6.545,16.738,16.738,0,0,0-16.72-16.72,16.738,16.738,0,0,0-16.718,16.72A16.738,16.738,0,0,0-671.8,159.65a16.61,16.61,0,0,0,6.642-1.371.341.341,0,0,1,.449.176.341.341,0,0,1-.177.449A17.281,17.281,0,0,1-671.8,160.332Z" transform="translate(689.199 -125.531)"/><path d="M-671.8,160.332a17.292,17.292,0,0,1-6.81-1.383.34.34,0,0,1-.18-.447.341.341,0,0,1,.447-.182,16.574,16.574,0,0,0,6.544,1.33,16.738,16.738,0,0,0,16.72-16.718,16.738,16.738,0,0,0-16.72-16.72,16.738,16.738,0,0,0-16.718,16.72,16.6,16.6,0,0,0,1.371,6.641.342.342,0,0,1-.177.449.34.34,0,0,1-.449-.176,17.305,17.305,0,0,1-1.427-6.914,17.42,17.42,0,0,1,17.4-17.4,17.42,17.42,0,0,1,17.4,17.4A17.421,17.421,0,0,1-671.8,160.332Z" transform="translate(689.199 -125.531)"/></g></g><g transform="translate(-678.613 128.989)"><g transform="translate(0 2.59)"><path d="M-675.389,141.248c-3.8,0-6.886-2.649-6.886-5.905s3.09-5.905,6.886-5.905,6.888,2.649,6.888,5.905a.379.379,0,0,1-.379.379.379.379,0,0,1-.379-.379c0-2.838-2.75-5.147-6.13-5.147s-6.128,2.309-6.128,5.147,2.749,5.147,6.128,5.147a.378.378,0,0,1,.379.379A.378.378,0,0,1-675.389,141.248Z" transform="translate(682.275 -129.437)"/><path d="M-675.389,148.538c-3.8,0-6.886-2.649-6.886-5.905a.38.38,0,0,1,.379-.379.38.38,0,0,1,.379.379c0,2.838,2.749,5.147,6.128,5.147s6.13-2.309,6.13-5.147-2.75-5.147-6.13-5.147a.379.379,0,0,1-.379-.379.379.379,0,0,1,.379-.379c3.8,0,6.888,2.649,6.888,5.905S-671.591,148.538-675.389,148.538Z" transform="translate(682.275 -125.674)"/></g><path d="M-677.6,146.99a.379.379,0,0,1-.379-.379v-1.866a.38.38,0,0,1,.379-.379.379.379,0,0,1,.379.379v1.866A.378.378,0,0,1-677.6,146.99Z" transform="translate(684.49 -119.142)"/><path d="M-677.6,130.555a.379.379,0,0,1-.379-.379v-2.068a.379.379,0,0,1,.379-.379.378.378,0,0,1,.379.379v2.068A.378.378,0,0,1-677.6,130.555Z" transform="translate(684.49 -127.729)"/><path d="M-677.6,153.436a.38.38,0,0,1-.379-.379V129.342a.379.379,0,0,1,.379-.379.378.378,0,0,1,.379.379v23.715A.379.379,0,0,1-677.6,153.436Z" transform="translate(684.49 -127.092)"/></g></g></svg>