<svg xmlns="http://www.w3.org/2000/svg" width="39.726" height="33.773" viewBox="0 0 39.726 33.773"><defs><style>.a{fill:#BEB132;}.b{fill:#040404;}.c{fill:#decac1;}</style></defs><g transform="translate(-5.553 -9.978)"><path class="a" d="M-634.145,178.9l-5.815,11.868h5.815Z" transform="translate(676.635 -147.4)"/><path class="a" d="M-639.96,178.9l6.794,10.28h-6.794Z" transform="translate(201.643 656.27) rotate(90)"/><path class="b" d="M44.018,26.848H20.423a.511.511,0,0,0-.511.511v17.92a.511.511,0,0,0,.511.511H44.018a.511.511,0,0,0,.511-.511V27.359a.511.511,0,0,0-.511-.511ZM20.935,44.768V40.881L26.81,36.9a.426.426,0,0,1,.528.037l6.506,5.914a.511.511,0,1,0,.688-.757l-6.506-5.914a1.447,1.447,0,0,0-1.79-.127l-5.3,3.6V27.87H43.507V39.826l-4.36-2.666a1.448,1.448,0,0,0-1.59.05l-3.151,2.211a.511.511,0,1,0,.588.837l3.151-2.211a.428.428,0,0,1,.469-.015l4.894,2.992v3.743Z" transform="translate(-5.001 -6.629)"/><circle class="a" cx="2" cy="2" r="2" transform="translate(27.26 23.964)"/><path class="b" d="M54.95,37.288a2.5,2.5,0,1,0-2.5,2.5A2.5,2.5,0,0,0,54.95,37.288Zm-3.975,0a1.476,1.476,0,1,1,1.476,1.476A1.476,1.476,0,0,1,50.974,37.288Z" transform="translate(-22.751 -11.322)"/><path class="b" d="M11.961,43.751H42.48a.511.511,0,0,0,.511-.511V16.14a.511.511,0,0,0-.511-.511H11.961a.511.511,0,0,0-.511.511v27.1a.511.511,0,0,0,.511.511Zm.511-27.1h29.5V42.728h-29.5Z" transform="translate(0 0)"/><g transform="translate(42.431 9.978)"><line class="c" x2="0.481" y2="0.481" transform="translate(0.363 0.364)"/><path class="a" d="M-1001.931,126.994a.363.363,0,0,1-.258-.106l-.48-.48a.365.365,0,0,1,0-.514.364.364,0,0,1,.515,0l.48.48a.365.365,0,0,1,0,.514A.362.362,0,0,1-1001.931,126.994Z" transform="translate(1002.775 -125.787)"/><g transform="translate(1.64 1.61)"><line class="c" x2="0.481" y2="0.481" transform="translate(0.364 0.364)"/><path class="a" d="M-1000.8,128.1a.362.362,0,0,1-.258-.106l-.48-.48a.364.364,0,0,1,0-.515.362.362,0,0,1,.514,0l.482.48a.366.366,0,0,1,0,.515A.362.362,0,0,1-1000.8,128.1Z" transform="translate(1001.648 -126.893)"/></g><g transform="translate(1.609 0.086)"><line class="c" x1="0.481" y2="0.481" transform="translate(0.364 0.363)"/><path class="a" d="M-1001.306,127.053a.359.359,0,0,1-.256-.106.364.364,0,0,1,0-.515l.48-.48a.365.365,0,0,1,.514,0,.364.364,0,0,1,0,.515l-.48.48A.363.363,0,0,1-1001.306,127.053Z" transform="translate(1001.67 -125.845)"/></g><g transform="translate(0.044 1.61)"><line class="c" x1="0.481" y2="0.481" transform="translate(0.365 0.364)"/><path class="a" d="M-1002.38,128.1a.363.363,0,0,1-.258-.106.364.364,0,0,1,0-.515l.482-.48a.362.362,0,0,1,.514,0,.364.364,0,0,1,0,.515l-.482.48A.357.357,0,0,1-1002.38,128.1Z" transform="translate(1002.745 -126.893)"/></g></g><g transform="translate(5.553 40.534)"><line class="c" x2="0.481" y2="0.481" transform="translate(0.363 0.363)"/><path d="M-1023.142,136.306a.362.362,0,0,1-.258-.106l-.48-.48a.367.367,0,0,1,0-.515.366.366,0,0,1,.515,0l.48.48a.364.364,0,0,1,0,.515A.363.363,0,0,1-1023.142,136.306Z" transform="translate(1023.986 -135.098)"/><g transform="translate(1.641 1.61)"><line class="c" x2="0.481" y2="0.481" transform="translate(0.363 0.363)"/><path d="M-1022.015,137.412a.363.363,0,0,1-.258-.106l-.48-.48a.365.365,0,0,1,0-.514.364.364,0,0,1,.515,0l.48.48a.365.365,0,0,1,0,.514A.363.363,0,0,1-1022.015,137.412Z" transform="translate(1022.859 -136.204)"/></g><g transform="translate(1.609 0.085)"><line class="c" x1="0.481" y2="0.481" transform="translate(0.364 0.364)"/><path d="M-1022.516,136.366a.364.364,0,0,1-.258-.108.362.362,0,0,1,0-.514l.48-.48a.362.362,0,0,1,.514,0,.362.362,0,0,1,0,.514l-.48.48A.363.363,0,0,1-1022.516,136.366Z" transform="translate(1022.881 -135.157)"/></g><g transform="translate(0.046 1.61)"><line class="c" x1="0.481" y2="0.481" transform="translate(0.363 0.363)"/><path d="M-1023.591,137.412a.357.357,0,0,1-.256-.106.362.362,0,0,1,0-.514l.48-.48a.362.362,0,0,1,.514,0,.362.362,0,0,1,0,.514l-.48.48A.363.363,0,0,1-1023.591,137.412Z" transform="translate(1023.955 -136.204)"/></g></g></g></svg>