<svg xmlns="http://www.w3.org/2000/svg" width="34.706" height="34.885" viewBox="0 0 34.706 34.885"><defs><style>.a{fill:#BEB132;}.b{fill:#decac1;}</style></defs><g transform="translate(695.74 -165.86)"><g transform="translate(-693.384 168.443)"><path d="M-677.434,171.259a1.129,1.129,0,0,0-1.127,1.128,1.128,1.128,0,0,0,1.127,1.128,1.128,1.128,0,0,0,1.128-1.128A1.128,1.128,0,0,0-677.434,171.259Z" transform="translate(701.296 -165.957)"/><path d="M-672.507,197.5h-13.367a8.263,8.263,0,0,1-8.253-8.253V175.884a8.263,8.263,0,0,1,8.253-8.255h13.367a8.263,8.263,0,0,1,8.253,8.255v13.365A8.263,8.263,0,0,1-672.507,197.5Zm-13.367-29.143a7.533,7.533,0,0,0-7.523,7.525v13.365a7.531,7.531,0,0,0,7.523,7.523h13.367a7.531,7.531,0,0,0,7.523-7.523V175.884a7.533,7.533,0,0,0-7.523-7.525Z" transform="translate(694.127 -167.629)"/><path d="M-681.272,188.817a8.343,8.343,0,0,1-8.334-8.334,8.342,8.342,0,0,1,8.334-8.332,8.343,8.343,0,0,1,8.334,8.332A8.344,8.344,0,0,1-681.272,188.817Zm0-15.936a7.611,7.611,0,0,0-7.6,7.6,7.611,7.611,0,0,0,7.6,7.6,7.611,7.611,0,0,0,7.6-7.6A7.611,7.611,0,0,0-681.272,172.881Z" transform="translate(696.209 -165.547)"/><path class="a" d="M-681.924,173.565a6.274,6.274,0,0,0-6.267,6.267,6.274,6.274,0,0,0,6.267,6.267,6.274,6.274,0,0,0,6.267-6.267A6.274,6.274,0,0,0-681.924,173.565Z" transform="translate(696.861 -164.895)"/></g><g transform="translate(-695.74 197.918)"><line class="b" x2="0.482" y2="0.482" transform="translate(0.365 0.365)"/><path d="M-694.892,189.022a.364.364,0,0,1-.259-.107l-.483-.482a.368.368,0,0,1,0-.517.365.365,0,0,1,.517,0l.482.482a.365.365,0,0,1,0,.517A.358.358,0,0,1-694.892,189.022Z" transform="translate(695.74 -187.81)"/><g transform="translate(1.646 1.617)"><line class="b" x2="0.482" y2="0.482" transform="translate(0.365 0.365)"/><path d="M-693.765,190.128a.364.364,0,0,1-.259-.107l-.483-.482a.366.366,0,0,1,0-.516.365.365,0,0,1,.517,0l.482.482a.363.363,0,0,1,0,.516A.358.358,0,0,1-693.765,190.128Z" transform="translate(694.613 -188.917)"/></g><g transform="translate(1.615 0.086)"><line class="b" x1="0.482" y2="0.482" transform="translate(0.365 0.365)"/><path d="M-694.269,189.081a.365.365,0,0,1-.259-.108.366.366,0,0,1,0-.516l.482-.482a.365.365,0,0,1,.517,0,.363.363,0,0,1,0,.516l-.482.482A.365.365,0,0,1-694.269,189.081Z" transform="translate(694.634 -187.868)"/></g><g transform="translate(0.046 1.617)"><line class="b" x1="0.482" y2="0.482" transform="translate(0.365 0.365)"/><path d="M-695.344,190.128a.358.358,0,0,1-.257-.107.363.363,0,0,1,0-.516l.482-.482a.365.365,0,0,1,.517,0,.366.366,0,0,1,0,.516l-.483.482A.364.364,0,0,1-695.344,190.128Z" transform="translate(695.708 -188.917)"/></g></g><g transform="translate(-663.893 165.861)"><line class="b" x2="0.482" y2="0.482" transform="translate(0.365 0.365)"/><path class="a" d="M-673.087,167.073a.365.365,0,0,1-.259-.108l-.482-.482a.363.363,0,0,1,0-.516.363.363,0,0,1,.516,0l.483.482a.366.366,0,0,1,0,.516A.365.365,0,0,1-673.087,167.073Z" transform="translate(673.935 -165.861)"/><g transform="translate(1.646 1.616)"><line class="b" x2="0.482" y2="0.482" transform="translate(0.365 0.365)"/><path class="a" d="M-671.96,168.179a.363.363,0,0,1-.258-.107l-.482-.482a.365.365,0,0,1,0-.517.366.366,0,0,1,.516,0l.483.482a.368.368,0,0,1,0,.517A.364.364,0,0,1-671.96,168.179Z" transform="translate(672.807 -166.967)"/></g><g transform="translate(1.614 0.086)"><line class="b" x1="0.482" y2="0.482" transform="translate(0.366 0.365)"/><path class="a" d="M-672.464,167.131a.364.364,0,0,1-.258-.107.363.363,0,0,1,0-.516l.483-.483a.366.366,0,0,1,.516,0,.365.365,0,0,1,0,.517l-.482.482A.364.364,0,0,1-672.464,167.131Z" transform="translate(672.83 -165.919)"/></g><g transform="translate(0.045 1.616)"><line class="b" x1="0.482" y2="0.482" transform="translate(0.365 0.365)"/><path class="a" d="M-673.538,168.179a.364.364,0,0,1-.258-.107.365.365,0,0,1,0-.517l.482-.482a.368.368,0,0,1,.517,0,.365.365,0,0,1,0,.517l-.483.482A.36.36,0,0,1-673.538,168.179Z" transform="translate(673.904 -166.967)"/></g></g></g></svg>