<?xml version="1.0" encoding="utf-8"?>
<!-- Generator: Adobe Illustrator 21.0.2, SVG Export Plug-In . SVG Version: 6.00 Build 0)  -->
<svg version="1.1" id="Layer_1" xmlns="http://www.w3.org/2000/svg" xmlns:xlink="http://www.w3.org/1999/xlink" x="0px" y="0px"
	 viewBox="0 0 55 55" style="enable-background:new 0 0 55 55;" xml:space="preserve">
<style type="text/css">
	.st0{fill:none;}
	.st1{fill:none;stroke:#000000;}
	.st2{enable-background:new    ;}
</style>
<g id="Group_178" transform="translate(-932 -1118)">
	<g id="Ellipse_2" transform="translate(932 1118)">
		<circle class="st0" cx="27.5" cy="27.5" r="27.5"/>
		<circle class="st1" cx="27.5" cy="27.5" r="27"/>
	</g>
	<g class="st2">
		<path d="M953.9,1150.7c0.5-1.1,1.6-2.3,3.4-3.6c1.5-1.1,2.5-1.9,3-2.4c0.7-0.7,1-1.6,1-2.4c0-0.7-0.2-1.3-0.6-1.8s-1-0.7-1.7-0.7
			c-1,0-1.7,0.4-2.1,1.1c-0.2,0.4-0.3,1.1-0.4,2.1h-3.2c0.1-1.4,0.3-2.6,0.8-3.5c0.9-1.7,2.5-2.5,4.8-2.5c1.8,0,3.2,0.5,4.3,1.5
			s1.6,2.3,1.6,4c0,1.3-0.4,2.4-1.1,3.4c-0.5,0.6-1.3,1.4-2.4,2.2l-1.3,0.9c-0.8,0.6-1.4,1-1.7,1.3s-0.6,0.6-0.8,0.9h7.4v2.9h-11.6
			C953.1,1152.8,953.4,1151.7,953.9,1150.7z"/>
	</g>
</g>
</svg>
