<svg xmlns="http://www.w3.org/2000/svg" width="37.554" height="35.686" viewBox="0 0 37.554 35.686"><defs><style>.a{fill:#BEB132;}.b{fill:#decac1;}</style></defs><g transform="translate(912.838 -125.569)"><g transform="translate(-912.838 127.515)"><path class="a" d="M-876.611,137.89a4.08,4.08,0,0,1-1.1,1.038v3.4a3.866,3.866,0,0,1-.786.44,3.662,3.662,0,0,1-1.447.3,3.6,3.6,0,0,1-3.634-3.539,3.632,3.632,0,0,1-1.054,2.47,3.629,3.629,0,0,1-2.564,1.07,3.625,3.625,0,0,1-3.634-3.634A3.626,3.626,0,0,1-891.885,142a3.6,3.6,0,0,1-2.564,1.07,3.625,3.625,0,0,1-3.634-3.634A3.626,3.626,0,0,1-899.136,142a3.629,3.629,0,0,1-2.564,1.07,3.625,3.625,0,0,1-3.634-3.634A3.625,3.625,0,0,1-906.388,142a3.6,3.6,0,0,1-2.564,1.07,3.739,3.739,0,0,1-1.463-.3,3.6,3.6,0,0,1-.787-.472v-3.382a4.2,4.2,0,0,1-1.07-1.038c.2-.031.5-.079.9-.126a3.234,3.234,0,0,0,2.407,1.085,3.228,3.228,0,0,0,2.879-1.746c.2-.016.409-.047.629-.079a1.55,1.55,0,0,0,.267-.031c.173-.016.346-.047.519-.063a3.253,3.253,0,0,0,2.973,1.919,3.228,3.228,0,0,0,3.177-2.69.142.142,0,0,1,.079-.016c.268-.031.519-.063.739-.094a.058.058,0,0,0,.047-.016,3.23,3.23,0,0,0,3.209,2.816A3.222,3.222,0,0,0-891.3,136.3c.047,0,.094.016.142.016.2.031.425.047.645.063a.59.59,0,0,0,.173.016,3.257,3.257,0,0,0,3.146,2.438,3.209,3.209,0,0,0,2.879-1.778c.2.016.425.047.629.063a.9.9,0,0,0,.2.016c.236.031.472.063.708.079a3.292,3.292,0,0,0,2.832,1.62,3.254,3.254,0,0,0,2.422-1.07C-877.13,137.827-876.815,137.858-876.611,137.89Z" transform="translate(913.163 -121.528)"/><path d="M-876.843,149.936h-34.437a1.561,1.561,0,0,1-1.559-1.559v-1.493a1.561,1.561,0,0,1,1.559-1.559h34.437a1.561,1.561,0,0,1,1.559,1.559v1.493A1.561,1.561,0,0,1-876.843,149.936Zm-34.437-3.824a.774.774,0,0,0-.772.772v1.493a.775.775,0,0,0,.772.772h34.437a.774.774,0,0,0,.772-.772v-1.493a.773.773,0,0,0-.772-.772Z" transform="translate(912.838 -116.195)"/><g transform="translate(0.184 9.644)"><path d="M-878.493,150.586h-32.7a.394.394,0,0,1-.393-.393V137.909a.393.393,0,0,1,.393-.393.393.393,0,0,1,.393.393V149.8h31.915v-11.89a.392.392,0,0,1,.393-.393.393.393,0,0,1,.393.393v12.284A.394.394,0,0,1-878.493,150.586Z" transform="translate(913.37 -130.313)"/><path d="M-908.7,140.475a4.024,4.024,0,0,1-4.019-4.019v-1.537a.393.393,0,0,1,.393-.393.393.393,0,0,1,.393.393v1.537a3.236,3.236,0,0,0,3.233,3.233,3.238,3.238,0,0,0,3.234-3.233.393.393,0,0,1,.393-.393.394.394,0,0,1,.393.393A4.026,4.026,0,0,1-908.7,140.475Z" transform="translate(912.721 -132.026)"/><path d="M-904.091,139.915a4.024,4.024,0,0,1-4.019-4.019.393.393,0,0,1,.393-.393.394.394,0,0,1,.393.393,3.236,3.236,0,0,0,3.233,3.233,3.238,3.238,0,0,0,3.234-3.233.394.394,0,0,1,.393-.393.394.394,0,0,1,.393.393A4.026,4.026,0,0,1-904.091,139.915Z" transform="translate(915.363 -131.467)"/><path d="M-899.478,139.915A4.025,4.025,0,0,1-903.5,135.9a.394.394,0,0,1,.393-.393.394.394,0,0,1,.393.393,3.236,3.236,0,0,0,3.233,3.233,3.238,3.238,0,0,0,3.234-3.233.394.394,0,0,1,.393-.393.394.394,0,0,1,.393.393A4.025,4.025,0,0,1-899.478,139.915Z" transform="translate(918.005 -131.467)"/><path d="M-894.869,139.915a4.024,4.024,0,0,1-4.019-4.019.394.394,0,0,1,.393-.393.394.394,0,0,1,.393.393,3.236,3.236,0,0,0,3.233,3.233,3.237,3.237,0,0,0,3.234-3.233.394.394,0,0,1,.393-.393.394.394,0,0,1,.393.393A4.025,4.025,0,0,1-894.869,139.915Z" transform="translate(920.648 -131.467)"/><path d="M-890.256,140.475a3.982,3.982,0,0,1-4.021-3.933.393.393,0,0,1,.393-.393.393.393,0,0,1,.393.393,3.2,3.2,0,0,0,3.233,3.146,3.2,3.2,0,0,0,3.234-3.146v-1.623a.393.393,0,0,1,.393-.393.393.393,0,0,1,.393.393v1.623A3.981,3.981,0,0,1-890.256,140.475Z" transform="translate(923.29 -132.026)"/><path d="M-876.062,136.223a.394.394,0,0,1-.393-.393,2.108,2.108,0,0,0-2.106-2.106h-31.267a2.107,2.107,0,0,0-2.106,2.106.394.394,0,0,1-.393.393.394.394,0,0,1-.393-.393,2.9,2.9,0,0,1,2.893-2.893h31.267a2.9,2.9,0,0,1,2.893,2.893A.394.394,0,0,1-876.062,136.223Z" transform="translate(912.721 -132.937)"/></g><g transform="translate(7.437 22.326)"><path d="M-907.717,142.929a.392.392,0,0,1-.393-.393v-1.144a.393.393,0,0,1,.393-.393.394.394,0,0,1,.393.393v1.144A.393.393,0,0,1-907.717,142.929Z" transform="translate(908.11 -140.999)"/><path d="M-903.065,142.929a.393.393,0,0,1-.393-.393v-1.144a.394.394,0,0,1,.393-.393.394.394,0,0,1,.393.393v1.144A.393.393,0,0,1-903.065,142.929Z" transform="translate(910.776 -140.999)"/><path d="M-898.413,142.929a.393.393,0,0,1-.393-.393v-1.144a.394.394,0,0,1,.393-.393.394.394,0,0,1,.393.393v1.144A.393.393,0,0,1-898.413,142.929Z" transform="translate(913.441 -140.999)"/><path d="M-893.761,142.929a.393.393,0,0,1-.393-.393v-1.144a.394.394,0,0,1,.393-.393.394.394,0,0,1,.393.393v1.144A.393.393,0,0,1-893.761,142.929Z" transform="translate(916.107 -140.999)"/><path d="M-905.41,144.909a.392.392,0,0,1-.393-.393v-1.14a.392.392,0,0,1,.393-.393.393.393,0,0,1,.393.393v1.14A.393.393,0,0,1-905.41,144.909Z" transform="translate(909.432 -139.863)"/><path d="M-900.758,144.909a.393.393,0,0,1-.393-.393v-1.14a.393.393,0,0,1,.393-.393.393.393,0,0,1,.393.393v1.14A.393.393,0,0,1-900.758,144.909Z" transform="translate(912.098 -139.863)"/><path d="M-896.106,144.909a.393.393,0,0,1-.393-.393v-1.14a.393.393,0,0,1,.393-.393.392.392,0,0,1,.393.393v1.14A.392.392,0,0,1-896.106,144.909Z" transform="translate(914.763 -139.863)"/></g><path d="M-905.934,134.647a.393.393,0,0,1-.393-.393v-2.536a.394.394,0,0,1,.393-.393.394.394,0,0,1,.393.393v2.536A.393.393,0,0,1-905.934,134.647Z" transform="translate(916.569 -124.217)"/><path d="M-900.666,134.647a.393.393,0,0,1-.393-.393v-2.536a.394.394,0,0,1,.393-.393.394.394,0,0,1,.393.393v2.536A.393.393,0,0,1-900.666,134.647Z" transform="translate(919.588 -124.217)"/><path d="M-895.4,134.647a.393.393,0,0,1-.393-.393v-2.536a.394.394,0,0,1,.393-.393.393.393,0,0,1,.393.393v2.536A.392.392,0,0,1-895.4,134.647Z" transform="translate(922.606 -124.217)"/><g transform="translate(7.529)"><path class="a" d="M-903.646,130.321a2.712,2.712,0,0,1-2.721,2.721.968.968,0,0,1-.3-.031,2.522,2.522,0,0,1-1.18-.409,3.293,3.293,0,0,1-.2-1.133c0-1.4,1.935-3.681,2.611-4.452a6.936,6.936,0,0,1,.488.645l.031.031A5.439,5.439,0,0,1-903.646,130.321Z" transform="translate(908.053 -126.685)"/><path d="M-904.945,134.7a3.109,3.109,0,0,1-3.107-3.105c0-1.609,2.531-4.362,2.819-4.67a.405.405,0,0,1,.574,0c.289.308,2.821,3.061,2.821,4.67A3.109,3.109,0,0,1-904.945,134.7Zm0-6.92c-.842.955-2.32,2.838-2.32,3.815a2.321,2.321,0,0,0,2.32,2.319,2.322,2.322,0,0,0,2.32-2.319C-902.625,130.619-904.105,128.736-904.945,127.781Z" transform="translate(908.052 -126.806)"/></g><g transform="translate(16.01)"><path class="a" d="M-898.253,130.321a2.712,2.712,0,0,1-2.721,2.721.968.968,0,0,1-.3-.031,2.522,2.522,0,0,1-1.18-.409,3.3,3.3,0,0,1-.2-1.133c0-1.4,1.935-3.681,2.611-4.452a6.915,6.915,0,0,1,.488.645l.031.031A5.439,5.439,0,0,1-898.253,130.321Z" transform="translate(902.661 -126.685)"/><path d="M-899.553,134.7a3.109,3.109,0,0,1-3.107-3.105c0-1.609,2.531-4.362,2.82-4.67a.405.405,0,0,1,.574,0c.289.308,2.819,3.061,2.819,4.67A3.109,3.109,0,0,1-899.553,134.7Zm0-6.92c-.84.955-2.32,2.838-2.32,3.815a2.322,2.322,0,0,0,2.32,2.319,2.321,2.321,0,0,0,2.32-2.319C-897.233,130.619-898.712,128.736-899.553,127.781Z" transform="translate(902.66 -126.806)"/></g><g transform="translate(24.297)"><path class="a" d="M-892.986,130.321a2.712,2.712,0,0,1-2.721,2.721.969.969,0,0,1-.3-.031,2.522,2.522,0,0,1-1.18-.409,3.293,3.293,0,0,1-.2-1.133c0-1.4,1.935-3.681,2.611-4.452a6.936,6.936,0,0,1,.488.645l.031.031A5.439,5.439,0,0,1-892.986,130.321Z" transform="translate(897.393 -126.685)"/><path d="M-894.285,134.7a3.11,3.11,0,0,1-3.107-3.105c0-1.609,2.531-4.362,2.82-4.67a.405.405,0,0,1,.574,0c.29.308,2.819,3.061,2.819,4.67A3.109,3.109,0,0,1-894.285,134.7Zm0-6.92c-.84.955-2.32,2.838-2.32,3.815a2.322,2.322,0,0,0,2.32,2.319,2.321,2.321,0,0,0,2.32-2.319C-891.965,130.619-893.444,128.736-894.285,127.781Z" transform="translate(897.392 -126.806)"/></g></g><g transform="translate(-910.709 125.569)"><line class="b" x2="0.52" y2="0.52" transform="translate(0.393 0.394)"/><path d="M-910.573,126.876a.393.393,0,0,1-.278-.116l-.519-.519a.394.394,0,0,1,0-.555.393.393,0,0,1,.557,0l.519.519a.391.391,0,0,1,0,.555A.393.393,0,0,1-910.573,126.876Z" transform="translate(911.485 -125.569)"/><g transform="translate(1.773 1.741)"><line class="b" x2="0.52" y2="0.52" transform="translate(0.393 0.393)"/><path d="M-909.446,127.981a.392.392,0,0,1-.278-.115l-.519-.519a.4.4,0,0,1,0-.557.4.4,0,0,1,.557,0l.519.519a.4.4,0,0,1,0,.557A.392.392,0,0,1-909.446,127.981Z" transform="translate(910.358 -126.676)"/></g><g transform="translate(1.739 0.092)"><line class="b" x1="0.52" y2="0.52" transform="translate(0.393 0.393)"/><path d="M-909.987,126.933a.391.391,0,0,1-.277-.115.391.391,0,0,1,0-.555l.519-.521a.4.4,0,0,1,.557,0,.4.4,0,0,1,0,.557l-.521.519A.392.392,0,0,1-909.987,126.933Z" transform="translate(910.379 -125.628)"/></g><g transform="translate(0.049 1.741)"><line class="b" x1="0.52" y2="0.52" transform="translate(0.393 0.393)"/><path d="M-911.061,127.981a.386.386,0,0,1-.277-.115.393.393,0,0,1,0-.557l.519-.519a.394.394,0,0,1,.555,0,.393.393,0,0,1,0,.557l-.519.519A.392.392,0,0,1-911.061,127.981Z" transform="translate(911.454 -126.676)"/></g><g transform="translate(30.219 0.064)"><line class="b" x2="0.52" y2="0.52" transform="translate(0.393 0.393)"/><path class="a" d="M-891.362,126.917a.393.393,0,0,1-.278-.116l-.519-.519a.394.394,0,0,1,0-.555.393.393,0,0,1,.557,0l.519.519a.394.394,0,0,1,0,.555A.393.393,0,0,1-891.362,126.917Z" transform="translate(892.274 -125.61)"/><g transform="translate(1.772 1.741)"><line class="b" x2="0.52" y2="0.52" transform="translate(0.394 0.392)"/><path class="a" d="M-890.234,128.022a.392.392,0,0,1-.278-.115l-.519-.519a.393.393,0,0,1,0-.557.4.4,0,0,1,.557,0l.519.519a.4.4,0,0,1,0,.557A.392.392,0,0,1-890.234,128.022Z" transform="translate(891.147 -126.717)"/></g><g transform="translate(1.739 0.092)"><line class="b" x1="0.52" y2="0.52" transform="translate(0.393 0.393)"/><path class="a" d="M-890.776,126.974a.385.385,0,0,1-.277-.115.391.391,0,0,1,0-.555l.519-.521a.4.4,0,0,1,.557,0,.4.4,0,0,1,0,.557l-.521.519A.392.392,0,0,1-890.776,126.974Z" transform="translate(891.168 -125.669)"/></g><g transform="translate(0.049 1.741)"><line class="b" x1="0.52" y2="0.52" transform="translate(0.393 0.392)"/><path class="a" d="M-891.85,128.022a.392.392,0,0,1-.278-.115.4.4,0,0,1,0-.557l.521-.519a.394.394,0,0,1,.555,0,.393.393,0,0,1,0,.557l-.519.519A.392.392,0,0,1-891.85,128.022Z" transform="translate(892.243 -126.717)"/></g></g></g></g></svg>